<svg xmlns="http://www.w3.org/2000/svg" width="268" height="258" preserveAspectRatio="xMidYMid slice" style="width:100%;height:100%;transform:translate3d(0,0,0);content-visibility:visible">
  <defs>
    <clipPath id="a">
      <path d="M0 0h268v258H0z"/>
    </clipPath>
    <clipPath id="f">
      <path d="M0 0h21v16H0z"/>
    </clipPath>
    <clipPath id="d">
      <path d="M0 0h268v258H0z"/>
    </clipPath>
    <clipPath id="e">
      <path fill="#fff" d="M144.25 23.25h-41.5c-19 0-37 20.75-37 35.75v11.5c0 20.75 25.1419983 34.43800354 36.18800354 34.43800354L146.5 105.5c11.04600525 0 34-16.5 34-35.25V59.5c0-15.75-16-36.25-36.25-36.25"/>
    </clipPath>
    <mask id="c">
      <path fill="#fff" d="M80.76799774 77.16300201h-14.147995c-2.42300414 0-4.3880043-1.96400451-4.3880043-4.38700103V55.22399902c0-2.42300033 1.96500016-4.38699722 4.3880043-4.38699722h14.147995v26.32600021"/>
    </mask>
    <mask id="b">
      <path fill="#fff" d="M80.76799774 77.16300201h-14.147995c-2.42300414 0-4.3880043-1.96400451-4.3880043-4.38700103V55.22399902c0-2.42300033 1.96500016-4.38699722 4.3880043-4.38699722h14.147995v26.32600021"/>
    </mask>
  </defs>
  <g clip-path="url(#a)">
    <g mask="url(#b)" style="display:block" transform="translate(-5.75)">
      <path fill="#cfd1d2" d="M0 0h268v258H0z"/>
    </g>
    <g mask="url(#c)" style="display:block" transform="rotate(180 126.125 64)">
      <path fill="#cfd1d2" d="M0 0h268v258H0z"/>
    </g>
    <g style="display:block">
      <path fill="#CFD1D2" d="m164.4820118 123.80400944-13.3010006 13.30200004c-3.28900146 3.28999997-3.28900146 8.72700024 0 12.15999985l12.15699959 12.15899944c6.72200012 6.72300148 17.59100055 6.72300148 24.31300056 0l35.89899933-35.90499925c5.86400223-5.86399985 5.86400223-15.44799948 0-21.3140006-4.57699966-4.57699967-11.44199943-5.72100068-17.1630001-3.00399781l-28.8899994 13.87599754"/>
      <path d="m205.95500946 100.30101013-28.8909998 13.875.86600018 1.80200005 28.89100075-13.875-.86600113-1.80200005zm18.30200195 3.1970005c-4.87600135-4.87600135-12.19600105-6.09800147-18.29800224-3.1989994l.8579998 1.80599976c5.3390007-2.5359993 11.7480011-1.47100068 16.02500153 2.8069992l1.41500091-1.41399955zm0 22.72799922c6.2539978-6.25499964 6.2539978-16.4720006 0-22.72799921l-1.41500091 1.41399955c5.47399902 5.47500038 5.47399902 14.42599964 0 19.89999962l1.41500091 1.41400004zm-35.89900171 35.9050002 35.89900171-35.9050002-1.41500091-1.41400004-35.89800084 35.90500069 1.41400004 1.41399956zm-25.7279991 0c7.11399842 7.11300088 18.61599923 7.11300088 25.7279991 0l-1.41400004-1.41399955c-6.3310002 6.33200073-16.56800067 6.33200073-22.89900005 0l-1.414999 1.41399956zm-12.15600013-12.1590004 12.15600013 12.1590004 1.41499901-1.41399955-12.1570015-12.1590004-1.41399764 1.41399956zm0-13.5729997c-3.68700028 3.68899988-3.66699982 9.74700045-.01399994 13.55800032l1.44400024-1.38399983c-2.9280014-3.05400085-2.90600204-7.8680005-.01600265-10.7590003l-1.41399765-1.4150002zm13.30099869-13.3020003-13.3009987 13.3020003 1.41399766 1.4150002 13.3010025-13.30400038-1.41400146-1.41300011zm13.2890005-8.92099952c-.49800014.23900032-.70800018.83600044-.46899986 1.33399964.23999977.4980011.8369999.70800018 1.33500004.4680004l-.86600017-1.80200004zm29.32300091-12.97399902-.4280014-.90299988-.00399971.0019989.43200111.90100098zm17.16300011 24.31699896.70700073.70699978-.70700073-.70699978zm-35.899001 35.90499925-.70700002-.70699882.70700002.70699882zm-24.3130008 0 .70700073-.70699882-.70700073.70699882zm-12.15699768-12.15899944-.72100067.69200039.01399994.01499939.70700073-.70699978zm0-12.15799975-.70700073-.70800019.70700073.70800019zm14.00799942-12.59700036c.39099884-.3909998.39099884-1.02400017 0-1.41499997-.39100075-.38999939-1.02300072-.38899994-1.41400146.00199986l1.41400146 1.4130001z"/>
      <path fill="#757575" d="M196.69200897 152.19400883c-.57099914-14.5909996-16.94199991-28.4289999-31.67299986-28.4289999l-.5090003-.00699997-13.24999904 13.22399997c-1.28700066 1.28800011-2.5720005 3.93499995-2.5720005 5.79400015 0 1.85999999.60599899 4.908 2.03700065 6.1960001l12.06099891 12.06599951c3.0040002 3.00400066 8.34400023 5.36999989 12.6340003 5.36999989 4.14799977 0 9.05600024-1.83600045 12.05899954-4.84000016l9.2130003-9.3739996z"/>
      <path fill="#757575" d="m229.1280098 110.07100677-5.72100068-5.72200012c5.86400033 5.86500168 5.86400033 15.45000077 0 21.31400109l-35.8979988 35.90499878c-6.72299958 6.72300148-17.59200097 6.72300148-24.31399918 0l5.72199821 5.72100067c6.72200013 6.72400093 17.59100056 6.72400093 24.31300068 0l35.89799977-35.9039998c5.86299896-5.86500026 5.86299896-15.44900084 0-21.31400062z"/>
      <path fill="#333" d="m195.45200825 153.30000687-7.6309998 7.54199957c-3.57599998 3.57599998-7.40799976 5.33599997-12.41299987 5.33599997-1.28800011 0-7.19000054-1.02999997-8.47699929-1.31599998 2.7179985 2.14600014 5.83799935 7.71499991 13.69299937 7.70700049 4.14799976-.00400066 9.15099978-1.625 12.1539998-4.62900066l8.66499996-8.15999985-5.99100017-6.47999954z"/>
      <path d="M229.83400917 132.0920105c6.25399971-6.25500012 6.25399971-16.47200012 0-22.72699928l-1.41399956 1.4130001c5.47299958 5.47499848 5.47299958 14.42599964 0 19.89999962l1.41399956 1.41399956zm-35.89699936 35.90399933 35.89699936-35.90399933-1.41399956-1.41399956-35.89699983 35.90399933 1.41400003 1.41399956zm-25.72800064 0c7.11200142 7.11500168 18.61500073 7.11500168 25.72800064 0l-1.41400003-1.41399956c-6.3329997 6.33300209-16.56899977 6.33300209-22.89999914 0l-1.41400147 1.41399956zm-5.72099876-5.72099877 5.72099876 5.72099877 1.41400147-1.41399956-5.72100258-5.72099876-1.41399765 1.41399955zm24.31399917-1.41399955c-6.33199882 6.33299827-16.56900024 6.33299827-22.90000152 0l-1.41399765 1.41399955c7.11299896 7.11400032 18.61599922 7.11400032 25.72799968 0l-1.4140005-1.41399955zm35.89700127-35.90400124-35.89700127 35.90400124 1.41400051 1.41399955 35.89700032-35.90400028-1.41399956-1.41400051zm0-19.90099907c5.47299957 5.47500038 5.47299957 14.42700005 0 19.90099907l1.41399956 1.41400051c6.2539997-6.25500011 6.2539997-16.47200108 0-22.7280016l-1.41399956 1.41300202zm7.13499832 4.30900002-5.72099876-5.72200203-1.41399956 1.41300201 5.72099876 5.72200012 1.41399956-1.4130001zm-.70699882 22.0199995-.70700074-.70699978.70700074.70699978zM193.23001003 167.289011l.70699978.70699883-.70699978-.70699883zm-24.31400013 0-.70700073.70699883.70700073-.70699883zm-5.01400184-6.4279995c-.3899994-.39100074-1.02299881-.39100074-1.41399765 0-.3899994.3899994-.3899994 1.02299881 0 1.41399956l1.41399765-1.41399955zm23.60700225.70699883.70699978.70700073-.70699978-.70700073zm35.89699936-35.90399933-.70699882-.70700073.70699882.70700073zm.70700074-22.02100181c-.3900013-.3899994-1.02300072-.3899994-1.41399956 0-.3900013.3900032-.3900013 1.02300262 0 1.41300201l1.41399956-1.41300201zm5.01399994 6.4280014-.70700074.70700073.70700074-.70700073z"/>
      <path d="m204.53601122 125.51200867 4.43300009 4.43500042 1.4159994-1.41400051-4.43499946-4.43499995-1.41400003 1.41400004zm-3.29800034-1.4230001c1.32700014 0 2.46700001.477 3.25300026 1.37500024l1.50400019-1.31700015c-1.21700048-1.39100003-2.93600035-2.05800009-4.75700045-2.05800009v2zm-3.28999984 0h3.29099977v-2h-3.29099977v2zm-4.71100008-2.01c1.32599997 1.32599998 3.00800007 2.01 4.71100008 2.01v-2c-1.15599999 0-2.33299994-.46099997-3.29599988-1.42399995l-1.4150002 1.41399996zm-9.43799973-9.44099998 9.43799973 9.44099999 1.4150002-1.41399996-9.43900037-9.44100006-1.41399956 1.41400003zm25.17000008 17.3090005c.38999939.38999939 1.02299976.38999939 1.41399955 0 .3909998-.39100075.3920002-1.02400017.00199986-1.41400051l-1.41599941 1.4140005zm-3.72599984-5.14200068-.75200033.6590004a66374.1925608 66374.1925608 0 0 0 .04500008.04799986l.70700025-.70700026zm-11.29800033-3.43299979.70700002-.707-.70700002.707zm-8.73200035-10.14800006c-.3909998-.3909998-1.02299977-.3909998-1.41399956 0-.3909998.39000034-.3909998 1.02299976 0 1.41400003l1.41399956-1.41400003z"/>
    </g>
    <g fill="#D9D9D9" style="display:block">
      <path d="M237.2800126 111.78800964h4.28999997v-2h-4.28999996v2zm4.28999997 0c.55200005 0 1-.44800001 1-1 0-.55199998-.44799995-1-1-1v2zm-4.28999996-2c-.55299998 0-1 .44800002-1 1 0 .55199999.44700002 1 1 1v-2z"/>
      <path d="M223.97801208 92.19100952h-2v4.29199982h2v-4.29199982zm0 0c0-.55200004-.44700002-1-1-1-.55299997 0-1 .44799996-1 1h2zm-2 4.29199982c0 .55200004.44700003 1 1 1 .55299998 0 1-.44799996 1-1h-2z"/>
      <path d="m233.8390122 101.33800936 3.00500006-3.00400013-1.416-1.4140001-3.00199998 3.00400013 1.41299993 1.4140001zm3.00500006-3.00400013c.38999987-.38999993.38899994-1.02399999-.0020001-1.4140001-.38999998-.39099979-1.023-.39099979-1.4139999 0l1.416 1.4140001zm-4.41799998 1.59000003c-.39100003.39099998-.39100003 1.024 0 1.4140001.39099991.3909998 1.02199995.3909998 1.41299993 0l-1.41299993-1.4140001z"/>
    </g>
    <g clip-path="url(#d)" style="display:block">
      <g clip-path="url(#e)">
        <path fill="#cfd1d2" d="M0 0h268v258H0z" style="display:block"/>
        <g style="display:block">
          <path fill="#DFF5E2" d="M149.89699936 66.65031338h-50.0569992c-7.43700028 0-13.5870018-6.15100003-13.5870018-13.58900016 0-7.4390002 6.15000152-13.59100015 13.5870018-13.59100015h50.0569992c7.43700027 0 13.58600235 6.15199995 13.58600235 13.59100015 0 7.43800013-6.14900208 13.58900016-13.58600235 13.58900016z"/>
          <path d="M162.4830017 53.06031363c0 6.88600023-5.70300101 12.59100015-12.58600234 12.59100015v2c7.98900223 0 14.58600235-6.60000038 14.58600235-14.59100015h-2zm-12.58600234-12.58900015c6.88300133 0 12.58600235 5.70300007 12.58600235 12.58900015h2c0-7.99000018-6.59700012-14.58900015-14.58600235-14.58900015v2zm-50.0569992 0h50.0569992v-2h-50.0569992v2zm-12.5870018 12.58900015c0-6.88600008 5.70200156-12.58900015 12.5870018-12.58900015v-2c-7.99000169 0-14.5870018 6.59899997-14.5870018 14.58900015h2zm12.5870018 12.59100015c-6.88500024 0-12.5870018-5.70499992-12.5870018-12.59100015h-2c0 7.99099977 6.59700011 14.59100015 14.5870018 14.59100015v-2zm50.0569992 0h-50.0569992v2h50.0569992v-2z"/>
          <path d="M143.45999908 62.35931396c3.14599991 0 5.7210002-2.57500028 5.7210002-5.72200012v-5.72200012c0-3.14699984-2.57500029-5.72200012-5.7210002-5.72200012-3.1459999 0-5.72100019 2.57500028-5.72100019 5.72200012v5.72200012c0 3.14699984 2.57500029 5.72200012 5.7210002 5.72200012z"/>
          <path d="M106.27499771 62.35931396c3.14599991 0 5.7210002-2.57500028 5.7210002-5.72200012v-5.72200012c0-3.14699984-2.57500029-5.72200012-5.7210002-5.72200012-3.1459999 0-5.7210002 2.57500028-5.7210002 5.72200012v5.72200012c0 3.14699984 2.5750003 5.72200012 5.7210002 5.72200012z"/>
        </g>
        <path d="M18.3069992-10.7290001c1.71700097 0 3.14500046 1.57499982 2.85900117 3.2909999C19.5930004 2.86100006 10.72700024 10.7290001.001 10.7290001c-10.72699983 0-19.59499986-7.86800004-21.16799982-18.1670003-.2859993-1.71600008 1.0019989-3.2909999 2.86199951-3.2909999h36.61199952z" style="display:block" transform="translate(123.43700027 83.10131454)"/>
        <path fill="#FFF" d="M8.51000023 4.21999979C7.9380002-.78600001 3.78999996-4.64900017-1.50199997-4.64900017c-2.7169999 0-5.14800013 1.14500022-7.00800026 2.86100018C-5.36299992 2.21799994-.50099999 4.64900017 4.93400002 4.64900017c1.28700017 0 2.57399988-.14300013 3.5760002-.42900038z" style="display:block" transform="translate(117.51024268 85.3397461) scale(.787561)"/>
        <path fill="#757575" d="M31.72042274 37.7935791H-1.1745777c-22.45400048 0-40.76000023-18.31000137-40.76000023-40.76900148 0-14.30400038 7.29500198-26.74900007 18.45000076-34.04399824-37.9367981-10.21585846-44.75328445 20.78052902-44.75328445 38.37552964 0 22.45800078 35.56781387 60.16112197 58.0218153 60.16112197L24.5198288 57.7683258c8.29599762 0 17.6229515-9.55704499 20.92959213-22.40674973-4.29100037 1.57400131-8.86599732 2.43200302-13.72899819 2.43200302z" style="display:block" transform="translate(114.21199417 65.51200104)"/>
      </g>
    </g>
    <g style="display:block">
      <path fill="#757575" d="M79.53100681 214.49601364h-8.43800068c-6.43599977 0-12.15699958-4.00699997-14.15899992-10.0150032l-11.4419999-32.18499811c-1.57299996-4.29099982-2.28899957-8.72499983-2.28899957-13.30200045V138.6810112c0-4.72100067 3.86299897-8.58300018 8.58199978-8.58300018h17.1619997c9.43900014 0 17.16300011 7.72400283 17.16300011 17.16600036v60.50799942c.14299965 3.72000122-2.8600006 6.72400284-6.57899952 6.72400284z"/>
      <path d="M85.11000633 207.81101227c.1210003 3.13000107-2.40500068 5.68500137-5.57900047 5.68500137v2c4.26300049 0 7.74300003-3.45300293 7.57800102-7.76200104l-1.99900055.07699967zm0-.03900147h2v-60.50799942h-2v60.50799942zm-16.1630001-76.67399978c8.88700008 0 16.1630001 7.27700042 16.1630001 16.16600036h2c0-9.99300003-8.17100048-18.16600036-18.1630001-18.16600036v2zm-17.16200066 0h17.16200066v-2H51.78500557v2zm-7.58099937 7.58300018c0-4.16899872 3.41399955-7.58300018 7.58099937-7.58300018v-2c-5.27199936 0-9.58099937 4.31100082-9.58099937 9.58300018h2zm0 0h-2v20.31200123h2V138.6810112zm2.22699928 33.27200112c-1.52899933-4.17099986-2.22699928-8.48900017-2.22699928-12.95900044h-2c0 4.68300056.73200035 9.2350006 2.35000038 13.64700046l1.8769989-.68800002zm11.44500065 32.1940004-11.4420004-32.18600039-1.88399886.67 11.44199943 32.18600046 1.88399983-.67000008zm13.217 9.34900092c-6.02300009 0-11.3499999-3.7460022-13.21000003-9.32900047l-1.89799977.63099861c2.14399958 6.43299866 8.2589997 10.69800186 15.1079998 10.69800186v-2zm8.43799973 0h-8.43799973v2h8.43799973v-2zm6.57900047-5.72400284h-1v.03900147l1-.03900147zM45.4920063 172.29601233l.94199944-.335-.00300026-.00800001-.93899918.343zm11.44199991 32.18600137.94899989-.31500053c-.00300026-.00699997-.00500012-.01300049-.00699997-.02000046l-.94199992.335001z"/>
      <path fill="#CFD1D2" d="M80.24600601 214.49601364c-6.72200012 0-12.73000002-4.29100036-15.01799965-10.58600044l-11.15500068-31.61400087c-1.57299996-4.29099982-2.28899956-8.72499983-2.28899956-13.30200045V138.6810112c0-4.72100067 3.86199951-8.58300018 8.58199978-8.58300018h15.73199987c11.01300001 0 20.02300024 9.01100158 20.02300024 20.02600097v48.49399948c.14299965 8.72600174-7.00800037 15.87800217-15.875 15.87800217z"/>
      <path d="M95.12000656 198.63300514c.13400078 8.15199852-6.55099869 14.86200142-14.87499905 14.86200142v2c9.40999985 0 17.02699948-7.59500122 16.87499905-16.89500046l-2 .03299904zm0-.01600075h2v-48.49300003h-2v48.49300003zm-19.02299905-67.52000045c10.46000028 0 19.02299905 8.56500244 19.02299905 19.02700042h2c0-11.56699752-9.45799923-21.02700042-21.02299905-21.02700042v2zm-15.7320001 0h15.7320001v-2h-15.7320001v2zm-7.58099938 7.58300018c0-4.16799927 3.41399955-7.58300018 7.58099937-7.58300018v-2c-5.27199936 0-9.58099937 4.31100082-9.58099937 9.58300018h2zm0 0h-2v20.31200123h2v-20.31200123zm2.22699928 33.27200112c-1.52899933-4.17099986-2.22699928-8.48799977-2.22699928-12.95900044h-2c0 4.68400001.73200035 9.2350006 2.35000038 13.64700046l1.8769989-.68800002zm11.16000032 31.62500015-11.15499925-31.61300013-1.88700104.665 11.15600014 31.61299913 1.88600015-.664999zm14.07399988 9.91800117c-6.294 0-11.92999982-4.02200317-14.07700014-9.92700195l-1.87999963.68300056c2.4289999 6.68200112 8.80699974 11.2440014 15.95699977 11.2440014v-2zm15.87499905-14.87800217h-1v.01600075l1-.01600075zm-42.04799843-26.32099914.94400025-.33199999-.00500107-.01200002-.93899918.344zm11.15599919 31.61300087-.94299984.33299827.00300026.00900078.93999958-.34199905z"/>
      <path fill="#757575" d="M81.10400605 213.63700867c-2.85999995-.2859993-6.43599987-3.43300247-8.72399974-9.7270012L61.22400665 172.2970078c-1.57299995-4.29200006-2.2880001-8.72600007-2.2880001-13.30400014v-19.31100082c0-4.71999741 3.4329996-8.15299988 8.15199947-8.15299988h8.58100009c11.01299977 0 20.4519999 7.58100128 20.4519999 18.59500122v48.49300003c.14299965 8.72599792-15.01699996 15.02000046-15.01699996 15.02000046z"/>
      <path fill="#333" d="M76.24100494 142.54200792c3.39700008 0 6.15100003 2.75399995 6.15100003 6.15099995h2c0-4.50199978-3.64900017-8.15100042-8.15100003-8.15100042v2.00000047zm-6.15100002 6.15099995c0-3.397 2.75399995-6.15099995 6.15100002-6.15099995v-2.00000047c-4.50199985 0-8.15100002 3.64900064-8.15100002 8.15100042h2zm6.15100002 6.15299995c-3.39700007 0-6.15100002-2.75499987-6.15100002-6.15299995h-2c0 4.50299986 3.64900017 8.15300043 8.15100002 8.15300043v-2.00000048zm6.15100003-6.15299995c0 3.39800008-2.75399995 6.15299995-6.15100003 6.15299995v2.00000048c4.50199986 0 8.15100003-3.65000057 8.15100003-8.15300043h-2z"/>
      <path fill="#CFD1D2" d="M169.6400032 178.21000862H74.96100235c-5.43500137 0-9.72399902-4.43499946-9.72399902-9.72799873v-34.33100033c0-9.58400059 7.86499786-17.45099926 17.4469986-17.45099926h79.23200225c9.58199692 0 17.4489975 7.86699867 17.4489975 17.45099926v34.33100033c0 5.29299927-4.29000092 9.72799873-9.72499848 9.72799873z"/>
      <path d="M178.07100296 168.291008c0 4.75-3.85199738 8.72799873-8.72499847 8.72799873v2c5.99699783 0 10.72499847-4.89299965 10.72499847-10.72799873h-2zm0 0h2v-34.33100033h-2V168.291008zm-16.4469986-50.7819996c9.02899933 0 16.4469986 7.41899873 16.4469986 16.45099927h2c0-10.13600064-8.31200027-18.45099926-18.4469986-18.45099926v2zm-79.2330017 0h79.2330017v-2h-79.2330017v2zM65.9430046 133.96000768c0-9.03200054 7.41799927-16.45099926 16.44799805-16.45099926v-2c-10.13499833 0-18.44799805 8.31499862-18.44799805 18.45099926h2zm0 0h-2V168.291008h2v-34.33100033zm8.72399902 43.05899906c-4.87200165 0-8.72399902-3.97799873-8.72399902-8.72799873h-2c0 5.83499908 4.72800064 10.72799873 10.72399902 10.72799873v-2zm94.67900086 0h-94.6780014v2h94.6780014v-2z"/>
      <path fill="#757575" d="M78.8140068 178.0190053h86.95600129c1.57299804 0 2.8600006 1.28600025 2.8600006 2.8590002v5.72300005c0 1.57399989-1.28700256 2.86000014-2.8600006 2.86000014H78.8140068c-1.57299805 0-2.86000061-1.28600025-2.86000061-2.86000014v-5.72300005c0-1.57299995 1.28700256-2.8590002 2.8600006-2.8590002z"/>
      <path d="M76.9540062 180.87900543c0-1.0209999.84000015-1.86000013 1.8600006-1.86000013v-2c-2.125 0-3.8600006 1.7340002-3.8600006 3.86000013h2zm0 0h-2v5.72200012h2v-5.72200012zm1.8600006 7.58200026c-1.02000045 0-1.8600006-.83900023-1.8600006-1.86000014h-2c0 2.12599993 1.7350006 3.86000014 3.8600006 3.86000014v-2zm86.95600129 0H78.81500626v2h86.95500183v-2zm1.8600006-1.86000014c0 1.02099991-.8390007 1.86000014-1.8600006 1.86000014v2c2.12599945 0 3.8600006-1.7340002 3.8600006-3.86000014h-2zm0 0h2v-5.72200012h-2v5.72200012zm-1.8600006-7.58200025c1.0209999 0 1.8600006.83900022 1.8600006 1.86000013h2c0-2.12599993-1.73400115-3.86000013-3.8600006-3.86000013v2zm-86.95600128 0h86.95500183v-2H78.8140068v2z"/>
      <path d="m126.29700434 149.98100877-4.43299997 4.43500018c-.71499991.71399975-2.00300002.71399975-2.86099982 0-.71500015-.71600008-.71500015-2.00300026 0-2.86200047l4.4339999-4.43299979c.71499997-.71500003 2.00199997-.71500003 2.8599999 0 .71500003.71499998.71500003 2.00200004 0 2.86000008zm-.143 8.8690002c-.71499992.7159996-2.00199992.7159996-2.8599999 0-.71500015-.71500016-.71500015-2.00300026 0-2.86100007.71499997-.71600055 2.00199994-.71600055 2.8599999 0 .85800004.71500016.85800004 2.00399971 0 2.86100006zm-8.72399974-8.8690002c-.71500063.71499991-2.00200034.71499991-2.86000014 0-.71500015-.71600008-.71500015-2.0020001 0-2.86000008l8.72399998-8.72700005c.71499997-.71500016 2.00199994-.71500016 2.8599999 0 .71600008.71500015.71600008 2.00300026 0 2.86100006l-8.72399974 8.72600007zm24.88499975-4.29200012-14.58800006-14.59000009c-1.57299995-1.57299995-4.00399995-1.57299995-5.5769999 0l-14.73099995 14.5900001c-1.57299995 1.57400005-1.57299995 4.14899998 0 5.57999998l9.7249999 9.72799968c1.28700018 1.2869997 3.00300026 2.0010004 4.862 2.0010004h5.57899999c1.8590002 0 3.57500029-.7140007 4.86199999-2.0010004l9.72500038-9.72799968c1.7159996-1.431 1.7159996-4.00599993.14299965-5.57999999z"/>
      <path d="M181.07500458 64.29700906c0 22.7639994-18.4300003 41.19800132-41.19000054 41.19800132v2c23.86400032 0 43.19000054-19.33000184 43.19000054-43.19800132h-2zm-41.19000054-41.2000013c22.76000023 0 41.19000054 18.43500136 41.19000054 41.2000013h2c0-23.86900003-19.32600022-43.2000013-43.19000054-43.2000013v2zm-32.8959999 0h32.8959999v-2h-32.8959999v2zm-41.18900109 41.2000013c0-22.76499994 18.4300003-41.2000013 41.18900109-41.2000013v-2c-23.86400033 0-43.18900109 19.33100127-43.18900109 43.2000013h2zm41.18900109 41.19800132c-22.75900078 0-41.18900109-18.43400193-41.18900109-41.19800132h-2c0 23.86799948 19.32500076 43.19800132 43.18900109 43.19800132v-2zm32.8959999 0h-32.8959999v2h32.8959999v-2z"/>
      <path d="M186.3660053 50.42300892h-1.43100011v2h1.43100011v-2zm5.28999984 5.29099941c0-2.9840002-2.30699992-5.29099941-5.28999984-5.29099941v2c1.87799996 0 3.28999996 1.4109993 3.28999996 3.29099941h1.99999988zm0 0h-1.99999988V72.8800087h1.99999988V55.71400833zm-5.28999984 22.45699978c2.98299992 0 5.28999984-2.3069992 5.28999984-5.29099941h-1.99999988c0 1.88000011-1.412 3.29099941-3.28999996 3.29099941v2zm-1.43100011 0h1.43100011v-2h-1.43100011v2zm0-27.7479992c-.55299998 0-1 .44799996-1 1 0 .5529995.44700002 1 1 1v-2zm0 25.7479992c-.55299998 0-1 .44799995-1 1s.44700002 1 1 1v-2z"/>
      <path d="M190.65601015 65.29700851h4.28999996v-2h-4.28999996v2zm4.28999996 0c.55200005 0 1-.448 1-1 0-.55199998-.44799995-1-1-1v2zm-4.28999996-2c-.55299997 0-1 .44800002-1 1 0 .552.44700003 1 1 1v-2z"/>
      <path fill="#CFD1D2" d="M199.23799951 68.58900833c2.36899989 0 4.28899996-1.92199993 4.28899996-4.29299982 0-2.37000005-1.92000007-4.29099981-4.28899996-4.29099981-2.36999996 0-4.29099996 1.92099976-4.29099996 4.29099981 0 2.37099989 1.921 4.29299982 4.29099996 4.29299982z"/>
      <path d="M199.23799951 61.00500846c1.81600003 0 3.2899999 1.4740001 3.2899999 3.29200005h2c0-2.92199993-2.3679998-5.29199981-5.2899999-5.29199981v1.99999976zm-3.29099996 3.29200005c0-1.81799995 1.47399998-3.29200005 3.29099996-3.29200005V59.0050087c-2.92299993 0-5.29099996 2.36999988-5.29099996 5.29199981h2zm3.29099996 3.29200006c-1.81699998 0-3.29099996-1.4740001-3.29099996-3.29200006h-2c0 2.92199994 2.36800003 5.29199982 5.29099996 5.29199982v-1.99999976zm3.2899999-3.29200006c0 1.81799996-1.47399987 3.29200006-3.2899999 3.29200006v1.99999976c2.9220001 0 5.2899999-2.36999988 5.2899999-5.29199982h-2z"/>
      <path d="M60.79500544 52.42300892h1.43100011v-2h-1.4310001v2zm-3.29099989 3.29099941c0-1.88000011 1.41199994-3.29099941 3.2909999-3.29099941v-2c-2.98399998 0-5.29100002 2.3069992-5.29100002 5.29099941h2.00000012zm0 0h-2.00000012V72.8800087h2.00000012V55.71400833zm3.2909999 20.45699978c-1.87899996 0-3.2909999-1.4109993-3.2909999-3.29099941h-2.00000012c0 2.9840002 2.30700004 5.29099941 5.29100001 5.29099941v-2zm1.4310001 0h-1.4310001v2h1.4310001v-2zm0-23.7479992c.55200005 0 1-.4470005 1-1 0-.55200004-.44799995-1-1-1v2zm0 25.7479992c.55200005 0 1-.44799995 1-1s-.44799995-1-1-1v2z"/>
      <path d="M56.50400543 63.29700851h-4.29199981v2h4.29199981v-2zm-4.29199981 0c-.55200005 0-1 .44800002-1 1 0 .552.44799995 1 1 1v-2zm4.29199981 2c.55200005 0 1-.448 1-1 0-.55199998-.44799995-1-1-1v2z"/>
      <path fill="#CFD1D2" d="M47.92300606 68.58900833c2.36999988 0 4.29099989-1.92199993 4.29099989-4.29299982 0-2.37000005-1.921-4.29099981-4.2909999-4.29099981-2.36999988 0-4.29099988 1.92099976-4.29099988 4.29099981 0 2.37099989 1.921 4.29299982 4.29099989 4.29299982z"/>
      <path d="M47.92200606 61.00500846c1.81800003 0 3.29099996 1.4740001 3.29099996 3.29200005h2c0-2.92199993-2.36899996-5.29199981-5.29099996-5.29199981v1.99999976zM44.6330061 64.2970085c0-1.81799995 1.47299993-3.29200005 3.28899996-3.29200005V59.0050087c-2.92099993 0-5.28899996 2.36999988-5.28899996 5.29199981h2zm3.28899996 3.29200006c-1.81600003 0-3.28899996-1.4740001-3.28899996-3.29200006h-2c0 2.92199994 2.36800003 5.29199982 5.28899996 5.29199982v-1.99999976zm3.29099996-3.29200006c0 1.81799996-1.47299993 3.29200006-3.29099996 3.29200006v1.99999976c2.922 0 5.29099996-2.36999988 5.29099996-5.29199982h-2z"/>
      <path fill="#333" d="M108.27800465 235.23700523H88.97000408c-6.86499882 0-12.30000019-5.57799911-12.30000019-12.30200004V201.9080057c0-6.86600017 5.57800102-12.30300045 12.3000002-12.30300045h19.30800056c6.86499881 0 12.30000019 5.57900048 12.30000019 12.30300045v21.02699948c0 6.72400093-5.43500138 12.30200004-12.3000002 12.30200004z"/>
      <path d="M119.57800484 222.93500519c0 6.17900085-4.99500084 11.30200004-11.3000002 11.30200004v2c7.4250002 0 13.3000002-6.03499984 13.3000002-13.30200004h-2zm0 0h2V201.9080057h-2v21.02699948zm-11.3000002-32.32999993c6.30499936 0 11.3000002 5.12400055 11.3000002 11.30300045h2c0-7.2680006-5.875-13.30300045-13.3000002-13.30300045v2zm-19.30800056 0h19.30800057v-2H88.97000408v2zM77.6700039 201.90800571c0-6.30700016 5.1220007-11.30300045 11.3000002-11.30300045v-2c-7.26699925 0-13.3000002 5.87700081-13.3000002 13.30300045h2zm0 0h-2v21.02699948h2V201.9080057zm11.3000002 32.32899952c-6.30499936 0-11.3000002-5.12299919-11.3000002-11.30200004h-2c0 7.2670002 5.87400055 13.30200004 13.3000002 13.30200004v-2zm19.30800056 0H88.97000408v2h19.30800057v-2z"/>
      <path d="M115.42800713 212.78100586H81.53200722v2h33.8959999v-2zm-33.89599991 0c-.55200005 0-1 .44700003-1 1 0 .55199999.44799995 1 1 1v-2zm33.8959999 2c.55200005 0 1-.44800001 1-1 0-.55299997-.44799995-1-1-1v2z"/>
      <path d="M111.85300636 201.3360138H85.10900688v2h26.74399948v-2zm-26.74399948 0c-.55200004 0-1 .44700002-1 1 0 .55299997.44799996 1 1 1v-2zm26.74399948 2c.55200005 0 1-.44700003 1-1 0-.55299998-.44799995-1-1-1v2z"/>
      <path d="M111.85300636 224.22401428H85.10900688v2h26.74399948v-2zm-26.74399948 0c-.55200004 0-1 .44700003-1 1 0 .55299998.44799996 1 1 1v-2zm26.74399948 2c.55200005 0 1-.44700002 1-1 0-.55299997-.44799995-1-1-1v2z"/>
      <path fill="#333" d="M156.6180048 235.23700523h-19.30800057c-6.86499881 0-12.29899883-5.57799911-12.29899883-12.30200004V201.9080057c0-6.86600017 5.57799912-12.30300045 12.29899883-12.30300045h19.30800057c6.86399937 0 12.29899883 5.57900048 12.29899883 12.30300045v21.02699948c0 6.72400093-5.57699966 12.30200004-12.29899883 12.30200004z"/>
      <path d="M167.91600418 222.93500519c0 6.17099952-5.12999916 11.30200004-11.29899883 11.30200004v2c7.27500057 0 13.29899883-6.02700042 13.29899883-13.30200004h-2zm0 0h2V201.9080057h-2v21.02699948zm-11.29899883-32.32999993c6.30499935 0 11.29899883 5.12400055 11.29899883 11.30300045h2c0-7.2680006-5.87399864-13.30300045-13.29899883-13.30300045v2zm-19.30700016 0h19.3079996v-2h-19.3079996v2zm-11.29999924 11.30300045c0-6.30700016 5.1229992-11.30300045 11.29999924-11.30300045v-2c-7.2670002 0-13.29999924 5.87700081-13.29999924 13.30300045h2zm0 0h-2v21.02699948h2V201.9080057zm11.29999924 32.32899952c-6.3050003 0-11.29999924-5.12299919-11.29999924-11.30200004h-2c0 7.2670002 5.875 13.30200004 13.29999924 13.30200004v-2zm19.30700016 0h-19.30800057v2h19.30800057v-2z"/>
      <path d="M163.76800728 212.78100586h-34.0379982v2h34.0379982v-2zm-34.0379982 0c-.5530014 0-1 .44700003-1 1 0 .55199999.4469986 1 1 1v-2zm34.0379982 2c.5530014 0 1-.44800001 1-1 0-.55299997-.4469986-1-1-1v2z"/>
      <path d="M160.05000782 201.3360138h-26.60199928v2h26.60199928v-2zm-26.60199928 0c-.55200005 0-1 .44700002-1 1 0 .55299997.44799995 1 1 1v-2zm26.60199928 2c.55200005 0 1-.44700003 1-1 0-.55299998-.44799995-1-1-1v2z"/>
      <path d="M160.05000782 224.22401428h-26.60199928v2h26.60199928v-2zm-26.60199928 0c-.55200005 0-1 .44700003-1 1 0 .55299998.44799995 1 1 1v-2zm26.60199928 2c.55200005 0 1-.44700002 1-1 0-.55299997-.44799995-1-1-1v2z"/>
      <path d="M214.54000092 234.0940094H45.7780075v2h168.7619934v-2zm-168.76199341 0c-.55200196 0-1 .44700003-1 1 0 .55199999.44799804 1 1 1v-2zm168.7619934 2c.5530014 0 1-.44800001 1-1 0-.55299997-.4469986-1-1-1v2z"/>
      <path d="M40.05700624 234.0940094h-2.8599999v2h2.8599999v-2zm-2.8599999 0c-.55300009 0-1.00000011.44700003-1.00000011 1 0 .55199999.44700002 1 1.00000011 1v-2zm2.8599999 2c.55200005 0 1.00000012-.44800001 1.00000012-1 0-.55299997-.44800007-1-1.00000012-1v2z"/>
      <path d="M220.26000214 236.0940094h5.72099995v-2h-5.72099995v2zm5.72099995 0c.55200005 0 1-.44800001 1-1 0-.55299997-.44799995-1-1-1v2zm-5.72099995-2c-.55299998 0-1 .44700003-1 1 0 .55199999.44700002 1 1 1v-2z"/>
    </g>
    <g clip-path="url(#f)" style="display:block" transform="translate(76.5 123)">
      <path d="M0 2.86100006c1.58000004 0 2.8599999-1.28000009 2.8599999-2.86000006 0-1.58-1.27999986-2.86200006-2.8599999-2.86200006S-2.8599999-1.579-2.8599999.001c0 1.57999997 1.27999986 2.86000006 2.8599999 2.86000006z" style="display:block" transform="translate(6.56099987 7.8119998)"/>
      <path fill="#A6E1B4" d="M0 2.86100006c1.58000004 0 2.8599999-1.28000009 2.8599999-2.86000006 0-1.58-1.27999986-2.86200006-2.8599999-2.86200006S-2.8599999-1.579-2.8599999.001c0 1.57999997 1.27999986 2.86000006 2.8599999 2.86000006z" style="display:block" transform="translate(14.72900033 7.8119998)"/>
    </g>
  </g>
</svg>
