<svg width="33" height="32" viewBox="0 0 33 32" fill="none" xmlns="http://www.w3.org/2000/svg">
<g style="mix-blend-mode:luminosity">
<path d="M4.3187 23.5489L5.46875 24.2129L18.2807 2.02251L17.1307 1.35851L4.3187 23.5489Z" fill="#30302F"/>
<path d="M29.6826 21.7754H4.05859V23.1034H29.6826V21.7754Z" fill="#30302F"/>
<path d="M4.56601 22.5238L17.3828 29.9238L18.0468 28.7738L5.23001 21.3738L4.56601 22.5238Z" fill="#30302F"/>
<path d="M15.6988 3.23672L28.5156 10.6367L29.1796 9.48667L16.3628 2.08667L15.6988 3.23672Z" fill="#30302F"/>
<path d="M4.57038 9.48081L5.23438 10.6309L18.0512 3.23086L17.3872 2.08081L4.57038 9.48081Z" fill="#30302F"/>
<path d="M15.4693 2.02251L28.2812 24.2129L29.4313 23.5489L16.6193 1.35851L15.4693 2.02251Z" fill="#30302F"/>
<path d="M6.40222 8.59961H5.07422V23.3996H6.40222V8.59961Z" fill="#30302F"/>
<path d="M28.6757 8.59961H27.3477V23.3996H28.6757V8.59961Z" fill="#30302F"/>
<path d="M16.5723 28.3568L17.1523 29.3613L28.2995 22.9253L27.7195 21.9208L16.5723 28.3568Z" fill="#30302F"/>
<path d="M30.4355 23.8314C29.6675 25.1674 27.9555 25.6234 26.6195 24.8554C25.2835 24.0874 24.8275 22.3754 25.5955 21.0394C26.3635 19.7034 28.0755 19.2474 29.4115 20.0154C30.7555 20.7914 31.2115 22.4954 30.4355 23.8314Z" fill="#30302F"/>
<path d="M8.1464 10.9603C7.3784 12.2963 5.6664 12.7523 4.3304 11.9843C2.9944 11.2163 2.5384 9.50429 3.3064 8.16829C4.0744 6.83229 5.7864 6.37629 7.1224 7.14429C8.4584 7.92029 8.9144 9.62429 8.1464 10.9603Z" fill="#30302F"/>
<path d="M3.31421 23.8314C2.54621 22.4954 3.00221 20.7914 4.33821 20.0154C5.67421 19.2474 7.37821 19.7034 8.15421 21.0394C8.92221 22.3754 8.46621 24.0794 7.13021 24.8554C5.78621 25.6234 4.08221 25.1674 3.31421 23.8314Z" fill="#30302F"/>
<path d="M25.6033 10.9603C24.8353 9.62429 25.2913 7.92029 26.6273 7.14429C27.9633 6.37629 29.6673 6.83229 30.4433 8.16829C31.2113 9.50429 30.7553 11.2083 29.4193 11.9843C28.0833 12.7523 26.3713 12.2963 25.6033 10.9603Z" fill="#30302F"/>
<path d="M16.874 31.6641C15.33 31.6641 14.082 30.4161 14.082 28.8721C14.082 27.3281 15.33 26.0801 16.874 26.0801C18.418 26.0801 19.666 27.3281 19.666 28.8721C19.666 30.4081 18.418 31.6641 16.874 31.6641Z" fill="#30302F"/>
<path d="M16.874 5.91994C15.33 5.91994 14.082 4.67194 14.082 3.12794C14.082 1.58394 15.33 0.335938 16.874 0.335938C18.418 0.335938 19.666 1.58394 19.666 3.12794C19.666 4.67194 18.418 5.91994 16.874 5.91994Z" fill="#30302F"/>
</g>
</svg>
