<?xml version="1.0" encoding="iso-8859-1"?>
<!-- Generator: Adobe Illustrator 24.1.1, SVG Export Plug-In . SVG Version: 6.00 Build 0)  -->
<svg version="1.1" id="Layer_1" xmlns="http://www.w3.org/2000/svg" xmlns:xlink="http://www.w3.org/1999/xlink" x="0px" y="0px"
	 viewBox="0 0 50 50" style="enable-background:new 0 0 50 50;" xml:space="preserve">
<path d="M40,41l-14,4l-14-4L9,7h34C42,18.333,41,29.667,40,41z M40.816,9H11.184l2.687,30.455L26,42.92l12.129-3.465
	C38.129,39.455,40.816,9,40.816,9z"/>
<polygon points="34.75,23 33.76,35 25.99,37 18.23,35 17.84,30 21.7,30 21.88,32 26,32.62 30.17,32 30.58,27 17.59,27 18.55,15 
	34,15 34.7,21 31,21 30.77,19 22.41,19 22.09,23 "/>
</svg>