<svg width="33" height="32" viewBox="0 0 33 32" fill="none" xmlns="http://www.w3.org/2000/svg">
<path d="M26.8963 24.5227C28.033 23.8643 28.8102 22.7651 29.0288 21.5067C29.1942 20.5537 29.0391 19.5971 28.6238 18.7469C28.0256 19.1637 27.2993 19.409 26.5165 19.409C24.6441 19.409 23.0935 18.0091 22.8537 16.2012C22.0829 16.1732 21.2688 16.1734 20.5024 16.2014C20.2625 18.0093 18.7119 19.409 16.8396 19.409C16.6516 19.409 16.467 19.3948 16.2865 19.3675C15.6844 20.3178 14.9518 21.2071 14.0998 22.0109C12.7817 23.2546 11.2956 24.1762 9.6828 24.7506L9.38709 24.8559L9.10793 24.7124C7.06785 23.6644 6.09592 21.4466 6.71396 19.4069C6.38031 19.3696 6.06022 19.2875 5.75929 19.1673C5.65924 19.3771 5.55644 19.5888 5.45154 19.8044C4.84444 21.0514 4.21651 22.3413 3.98431 23.7414C3.73372 25.2528 3.63441 28.0109 5.78526 29.5016C8.7216 31.5366 11.8357 29.99 15.4416 28.1989C17.2432 27.3041 19.1068 26.3784 21.0302 25.9041C21.7578 25.7247 22.5025 25.6173 23.2227 25.5135C24.567 25.3196 25.8368 25.1364 26.8963 24.5227Z" fill="#30302F"/>
<path d="M9.37113 15.7344C9.37113 14.4965 8.36408 13.4894 7.12611 13.4894C5.88821 13.4894 4.88108 14.4965 4.88108 15.7344C4.88108 16.1383 4.98889 16.5174 5.17643 16.8452C5.4355 17.2981 5.84736 17.6527 6.34164 17.8377C6.58598 17.9291 6.85028 17.9794 7.12611 17.9794C7.17798 17.9794 7.22935 17.977 7.28035 17.9735C8.00925 17.9238 8.6434 17.5248 9.01666 16.9428C9.24069 16.5936 9.37113 16.179 9.37113 15.7344Z" fill="#30302F"/>
<path d="M16.5064 13.4929C15.426 13.6544 14.5946 14.5883 14.5946 15.713C14.5946 16.5027 15.0048 17.1979 15.6229 17.5983C15.9738 17.8255 16.3914 17.9581 16.8396 17.9581C16.9161 17.9581 16.9917 17.9542 17.0661 17.9467C18.0231 17.8503 18.8041 17.1503 19.0229 16.2344C19.0629 16.067 19.0846 15.8925 19.0846 15.713C19.0846 15.3736 19.0085 15.0518 18.8731 14.763C18.8018 14.611 18.7132 14.4685 18.611 14.3373C18.2 13.809 17.5593 13.468 16.8396 13.468C16.7264 13.468 16.6151 13.4766 16.5064 13.4929Z" fill="#30302F"/>
<path d="M22.9478 14.7527C23.1259 14.0916 23.4836 13.5036 23.9645 13.0435L21.618 8.25684L19.295 12.9542C19.8247 13.4264 20.2185 14.0481 20.4084 14.7527C21.2349 14.7215 22.1164 14.7215 22.9478 14.7527Z" fill="#30302F"/>
<path d="M29.2722 1.45117H13.9577L17.5626 12.0888C17.726 12.1214 17.8856 12.1643 18.0405 12.2176L21.6238 4.97204L25.1969 12.2612C25.3454 12.2042 25.4983 12.1568 25.6551 12.1192L29.2722 1.45117Z" fill="#30302F"/>
<path d="M28.6659 16.3606C28.7278 16.1554 28.7615 15.9382 28.7615 15.713C28.7615 14.546 27.8663 13.5844 26.7265 13.4782C26.6573 13.4717 26.5873 13.468 26.5165 13.468C25.7435 13.468 25.0617 13.8614 24.6577 14.4577C24.5751 14.5797 24.5031 14.7096 24.4454 14.847C24.3335 15.1136 24.2714 15.4062 24.2714 15.713C24.2714 15.9143 24.2985 16.1093 24.3484 16.295C24.6055 17.2517 25.4799 17.9581 26.5165 17.9581C26.9938 17.9581 27.4365 17.8079 27.8006 17.553C28.2092 17.267 28.5185 16.8487 28.6659 16.3606Z" fill="#30302F"/>
</svg>
