<svg width="33" height="32" viewBox="0 0 33 32" fill="none" xmlns="http://www.w3.org/2000/svg">
<g clip-path="url(#clip0_5712_1133)">
<path d="M28.1961 0H5.79609C3.14513 0 0.996094 2.14903 0.996094 4.8V27.2C0.996094 29.851 3.14513 32 5.79609 32H28.1961C30.8471 32 32.9961 29.851 32.9961 27.2V4.8C32.9961 2.14903 30.8471 0 28.1961 0Z" fill="#30302F"/>
<path d="M22.2422 25.1172C22.8672 26.1797 23.7422 26.9297 25.1797 26.9297C26.4297 26.9297 27.2422 26.3047 27.2422 25.4297C27.2422 24.4297 26.4297 24.0547 25.0547 23.4297L24.3047 23.1172C22.1172 22.1797 20.6797 21.0547 20.6797 18.6172C20.6797 16.3672 22.3672 14.6172 25.0547 14.6172C26.9922 14.6172 28.3672 15.3047 29.3047 17.0547L26.9922 18.5547C26.4922 17.6172 25.9297 17.2422 25.0547 17.2422C24.1797 17.2422 23.6172 17.8047 23.6172 18.5547C23.6172 19.4297 24.1797 19.8047 25.4922 20.3672L26.2422 20.6797C28.8047 21.8047 30.2422 22.8672 30.2422 25.4297C30.2422 28.1172 28.1172 29.6172 25.2422 29.6172C22.4297 29.6172 20.6172 28.3047 19.7422 26.5547L22.2422 25.1172ZM11.6172 25.3672C12.1172 26.1797 12.4922 26.9297 13.5547 26.9297C14.5547 26.9297 15.1797 26.5547 15.1797 25.0547V14.6797H18.1797V24.9297C18.1797 28.0547 16.3672 29.4297 13.6797 29.4297C11.2422 29.4297 9.86719 28.1797 9.17969 26.6797L11.6172 25.3672Z" fill="white"/>
</g>
<defs>
<clipPath id="clip0_5712_1133">
<rect width="32" height="32" fill="white" transform="translate(0.996094)"/>
</clipPath>
</defs>
</svg>
