<svg width="64" height="32" viewBox="0 0 64 32" fill="none" xmlns="http://www.w3.org/2000/svg">
<path d="M33.8508 7.78125L33.8507 18.3932L37.7487 14.496L39.7162 16.4636L32.511 23.6684L25.2148 16.3722L27.1824 14.4046L31.0681 18.2902L31.0682 7.78125H33.8508Z" fill="#30302F"/>
<path d="M8.78261 23.1179V14.8994L13.8144 19.9316L18.8844 14.862V23.0349H21.667V8.14453L13.8146 15.9964L6 8.18129V23.1179H8.78261Z" fill="#30302F"/>
<path d="M55.7397 7.32812L57.7073 9.29576L51.8136 15.1892L57.526 20.9017L55.5584 22.8693L49.8458 17.1569L44.1333 22.8693L42.1657 20.9017L47.8776 15.1892L41.9844 9.29576L43.9519 7.32812L49.8458 13.2214L55.7397 7.32812Z" fill="#30302F"/>
</svg>
