<svg width="34" height="32" viewBox="0 0 34 32" fill="none" xmlns="http://www.w3.org/2000/svg">
<path fill-rule="evenodd" clip-rule="evenodd" d="M20.0751 0.53125C19.8486 0.53125 19.6383 0.579795 19.4441 0.644517C19.8567 0.919593 20.0832 1.28367 20.1965 1.69628C20.2046 1.75291 20.2208 1.79337 20.2289 1.85C20.237 1.89854 20.245 1.94708 20.245 1.99563C20.2774 2.70759 20.059 2.79658 19.9052 3.21729C19.6706 3.75935 19.7353 4.34187 20.0185 4.81112C20.0428 4.86775 20.0751 4.93247 20.1156 4.98911C19.8082 2.94221 21.5153 2.63478 21.8308 1.99563C21.8551 1.43738 21.3939 1.06522 21.0298 0.806326C20.6819 0.595974 20.3664 0.53125 20.0751 0.53125ZM22.6479 0.992408C22.6155 1.17849 22.6398 1.12995 22.6318 1.22703C22.6237 1.29175 22.6237 1.37266 22.6156 1.43738C22.5994 1.50211 22.5832 1.56683 22.5589 1.63156C22.5428 1.69628 22.5185 1.761 22.4942 1.82573C22.4618 1.89045 22.4376 1.94708 22.4052 2.01181C22.381 2.04418 22.3648 2.07653 22.3405 2.1089C22.3243 2.13317 22.3081 2.15744 22.292 2.18171C22.2515 2.23834 22.2111 2.29498 22.1706 2.34352C22.1221 2.39206 22.0816 2.44869 22.025 2.48915V2.49725C21.9764 2.5377 21.9279 2.58625 21.8713 2.6267C21.7014 2.75614 21.5072 2.85323 21.3292 2.97459C21.2726 3.01504 21.2159 3.0474 21.1674 3.09595C21.1108 3.1364 21.0622 3.17685 21.0137 3.22539C20.957 3.27393 20.9166 3.32248 20.868 3.37911C20.8276 3.42766 20.779 3.48429 20.7467 3.54092C20.7062 3.59755 20.6658 3.65419 20.6334 3.71082C20.601 3.77554 20.5768 3.83218 20.5444 3.8969C20.5201 3.96162 20.4959 4.01826 20.4797 4.08298C20.4554 4.1558 20.4392 4.22052 20.4231 4.28525C20.415 4.31762 20.415 4.35806 20.4069 4.39042C20.3988 4.4228 20.3988 4.45514 20.3907 4.48751C20.3907 4.55223 20.3826 4.62505 20.3826 4.68977C20.3826 4.73831 20.3826 4.78686 20.3907 4.8354C20.3907 4.90012 20.3988 4.96485 20.415 5.03766C20.4231 5.10238 20.4393 5.16711 20.4555 5.23183C20.4797 5.29656 20.4959 5.36128 20.5202 5.426C20.5363 5.46646 20.5606 5.50691 20.5768 5.53927L18.716 4.81922C18.4005 4.73022 18.093 4.64932 17.7775 4.5765C17.6076 4.53605 17.4377 4.4956 17.2678 4.45515C16.7824 4.35806 16.2889 4.28525 15.7953 4.23671C15.7792 4.23671 15.7711 4.2286 15.7549 4.2286C15.2695 4.18006 14.7921 4.15579 14.3067 4.15579C13.9507 4.15579 13.5947 4.17196 13.2468 4.19624C12.7533 4.22862 12.2598 4.29333 11.7663 4.37423C11.6449 4.3904 11.5236 4.41469 11.4022 4.43896C11.1514 4.4875 10.9087 4.54413 10.6741 4.60077C10.5527 4.63314 10.4313 4.66549 10.31 4.69785C10.1886 4.74639 10.0754 4.80303 9.96209 4.85157C9.87309 4.89202 9.7841 4.93247 9.69511 4.97293C9.67894 4.98103 9.66273 4.98103 9.65465 4.9891C9.57375 5.02955 9.50093 5.06191 9.42812 5.10236C9.40385 5.11047 9.38767 5.11853 9.37149 5.12664C9.28249 5.16709 9.1935 5.21563 9.12068 5.25608C9.06405 5.28035 9.00742 5.31272 8.95887 5.33699C8.9346 5.35316 8.90224 5.36936 8.88606 5.37744C8.81324 5.41789 8.74043 5.45834 8.6757 5.4988C8.60289 5.53925 8.53817 5.5797 8.48153 5.62015C8.4249 5.66061 8.36827 5.69297 8.31972 5.73342C8.31162 5.74152 8.30355 5.74152 8.29545 5.74959C8.24691 5.78196 8.19028 5.8224 8.14173 5.86286C8.14173 5.86286 8.13363 5.87096 8.12557 5.87903C8.08511 5.9114 8.04466 5.94375 8.00421 5.97611C7.98804 5.98421 7.97183 6.00038 7.95566 6.00848C7.91521 6.04086 7.87476 6.0813 7.83431 6.11366C7.8262 6.12983 7.81004 6.13793 7.80193 6.14604C7.75339 6.19458 7.70485 6.23503 7.6563 6.28357C7.6482 6.28357 7.6482 6.29168 7.64014 6.29974C7.59159 6.34019 7.54305 6.38874 7.49451 6.43728C7.4864 6.44538 7.4864 6.45345 7.47834 6.45345C7.43789 6.4939 7.39743 6.53436 7.35698 6.58289C7.34081 6.59906 7.31653 6.61527 7.30035 6.63144C7.2599 6.67998 7.21135 6.72852 7.16281 6.77707C7.15471 6.79324 7.13854 6.80134 7.13044 6.81752C7.06571 6.88225 7.00908 6.94697 6.94435 7.01169C6.93625 7.01979 6.92819 7.02786 6.92008 7.03596C6.79063 7.1735 6.65309 7.31104 6.50747 7.4324C6.36184 7.56184 6.20812 7.6832 6.0544 7.78838C5.89259 7.90165 5.73887 7.99873 5.56897 8.09582C5.40716 8.18481 5.23726 8.26572 5.05927 8.33853C4.88937 8.41135 4.71138 8.47607 4.53339 8.5327C4.19359 8.60551 3.8457 8.74305 3.54635 8.76733C3.48163 8.76733 3.40881 8.78349 3.34409 8.7916C3.27127 8.80776 3.20655 8.82397 3.14183 8.84014C3.0771 8.86441 3.01238 8.88868 2.94765 8.91295C2.88293 8.93723 2.81821 8.96959 2.75348 9.00195C2.69685 9.0424 2.63213 9.07476 2.57549 9.11522C2.51886 9.15567 2.46223 9.20421 2.41368 9.25275C2.35705 9.29321 2.30042 9.34984 2.25187 9.39838C2.20333 9.45502 2.15479 9.50356 2.11433 9.56019C2.07388 9.62492 2.02534 9.68155 1.99298 9.74627C1.95252 9.80291 1.91207 9.86763 1.87971 9.93235C1.84734 10.0052 1.81499 10.0699 1.79072 10.1427C1.76644 10.2074 1.74217 10.2802 1.7179 10.3531C1.70173 10.4178 1.68553 10.4825 1.67745 10.5472C1.67745 10.5553 1.66935 10.5634 1.66935 10.5715C1.65318 10.6443 1.65318 10.7414 1.64507 10.79C1.63697 10.8466 1.62891 10.8951 1.62891 10.9518C1.62891 10.9841 1.62891 11.0246 1.63701 11.0569C1.64511 11.1136 1.65318 11.1621 1.66938 11.2107C1.68555 11.2592 1.70176 11.3077 1.72602 11.3563V11.3644C1.75029 11.4129 1.78265 11.4615 1.81501 11.51C1.84738 11.5586 1.87974 11.6071 1.92019 11.6556C1.96064 11.6961 2.00918 11.7446 2.05773 11.7851C2.10627 11.8336 2.15481 11.8741 2.21144 11.9145C2.40562 12.0844 2.45416 12.1411 2.70496 12.2705C2.74542 12.2948 2.78587 12.311 2.83441 12.3352C2.84252 12.3352 2.85058 12.3433 2.85869 12.3433C2.85869 12.3595 2.85869 12.3676 2.86679 12.3838C2.87489 12.4485 2.89106 12.5132 2.90724 12.578C2.92341 12.6508 2.9477 12.7155 2.97197 12.7721C2.99624 12.8207 3.01242 12.8692 3.03669 12.9178C3.0448 12.9339 3.05286 12.9501 3.06096 12.9582C3.09334 13.0229 3.12569 13.0796 3.15805 13.1362C3.1985 13.1928 3.23895 13.2495 3.2794 13.3061C3.31986 13.3547 3.3684 13.4113 3.41694 13.4598C3.46549 13.5084 3.51403 13.5488 3.57066 13.5974C3.57066 13.5974 3.57877 13.6055 3.58683 13.6055C3.63538 13.6459 3.68392 13.6864 3.73246 13.7187C3.78909 13.7592 3.84573 13.7916 3.91045 13.8239C3.96709 13.8563 4.03181 13.8886 4.09653 13.9129C4.14508 13.9372 4.20171 13.9534 4.25834 13.9696C4.26645 13.9777 4.27451 13.9777 4.29072 13.9857C4.32309 13.9938 4.36353 14.0019 4.39589 14.01C4.37162 14.4469 4.36352 14.8595 4.42827 15.0051C4.50108 15.1669 4.85706 14.6734 5.21304 14.1071C5.1645 14.6653 5.13214 15.3207 5.21304 15.5148C5.30204 15.7171 5.78747 15.086 6.20817 14.3902C11.9443 13.0634 17.1789 17.0277 17.729 22.6264C17.6238 21.7526 16.5478 21.2672 16.0543 21.3885C15.8116 21.9872 15.399 22.7558 14.7355 23.2331C14.7922 22.6992 14.7679 22.149 14.6546 21.615C14.4766 22.3594 14.1288 23.0552 13.6514 23.6539C12.8828 23.7105 12.1142 23.3383 11.7097 22.7801C11.6773 22.7558 11.6692 22.7073 11.645 22.6749C11.6207 22.6183 11.5964 22.5616 11.5803 22.505C11.556 22.4484 11.5398 22.3917 11.5317 22.3351C11.5236 22.2785 11.5236 22.2218 11.5236 22.1571C11.5236 22.1167 11.5236 22.0762 11.5236 22.0358C11.5317 21.9791 11.5479 21.9225 11.5641 21.8659C11.5802 21.8092 11.5964 21.7526 11.6207 21.696C11.6531 21.6393 11.6773 21.5827 11.7178 21.5261C11.8553 21.1377 11.8553 20.8222 11.6045 20.6361C11.556 20.6037 11.5074 20.5795 11.4508 20.5552C11.4184 20.5471 11.378 20.5309 11.3456 20.5228C11.3213 20.5147 11.3052 20.5066 11.2809 20.4985C11.2243 20.4824 11.1676 20.4662 11.111 20.4581C11.0544 20.4419 10.9977 20.4338 10.9411 20.4338C10.8845 20.4257 10.8197 20.4177 10.7631 20.4177C10.7226 20.4177 10.6822 20.4258 10.6417 20.4258C10.577 20.4258 10.5204 20.4339 10.4638 20.45C10.4071 20.4581 10.3505 20.4662 10.2939 20.4824C10.2372 20.4986 10.1806 20.5148 10.1239 20.539C10.0673 20.5633 10.0188 20.5876 9.96214 20.6119C9.9136 20.6361 9.86506 20.6685 9.80842 20.6928C7.92334 21.9225 9.04792 24.8027 10.3343 25.636C9.84887 25.725 9.35536 25.8302 9.21782 25.9354C9.20971 25.9435 9.20165 25.9516 9.20165 25.9516C9.54954 26.1619 9.91361 26.3399 10.2939 26.4936C10.8117 26.6635 11.3618 26.8172 11.6045 26.882V26.8901C12.276 27.0276 12.9556 27.0761 13.6433 27.0357C17.2274 26.7849 20.1643 24.0584 20.6982 20.4662C20.7144 20.539 20.7306 20.6038 20.7468 20.6766C20.771 20.8222 20.8034 20.9759 20.8196 21.1296V21.1378C20.8358 21.2106 20.8439 21.2834 20.852 21.3481V21.3805C20.8601 21.4533 20.8681 21.5261 20.8681 21.5908C20.8762 21.6798 20.8843 21.7688 20.8843 21.8578V21.9873C20.8843 22.0277 20.8924 22.0763 20.8924 22.1167C20.8924 22.1653 20.8843 22.2138 20.8843 22.2623V22.3756C20.8843 22.4322 20.8762 22.4808 20.8762 22.5374C20.8762 22.5698 20.8762 22.6021 20.8681 22.6426C20.8681 22.6992 20.86 22.7559 20.86 22.8206C20.8519 22.8449 20.8519 22.8691 20.8519 22.8934C20.8438 22.9581 20.8357 23.0148 20.8276 23.0795C20.8276 23.1038 20.8276 23.128 20.8195 23.1523C20.8114 23.2332 20.7952 23.306 20.7871 23.3869V23.395V23.4031C20.771 23.4759 20.7547 23.5569 20.7386 23.6297V23.6539C20.7224 23.7268 20.7062 23.7996 20.69 23.8724C20.69 23.8805 20.6819 23.8967 20.6819 23.9048C20.6658 23.9776 20.6496 24.0504 20.6253 24.1232V24.1475C20.601 24.2284 20.5768 24.3012 20.5606 24.374C20.5525 24.3821 20.5525 24.3902 20.5525 24.3902C20.5282 24.4711 20.5039 24.552 20.4797 24.6329C20.4473 24.7138 20.423 24.7866 20.3907 24.8675C20.3583 24.9484 20.334 25.0293 20.3017 25.1021C20.2693 25.183 20.2369 25.2559 20.2046 25.3368H20.1965C20.1641 25.4096 20.1317 25.4905 20.0913 25.5633C20.0832 25.5876 20.0751 25.6037 20.067 25.6199C20.0589 25.628 20.0589 25.6361 20.0509 25.6442C19.525 26.704 18.7483 27.6345 17.7774 28.3626C17.7127 28.403 17.648 28.4516 17.5833 28.5001C17.5671 28.5163 17.5428 28.5244 17.5266 28.5406C17.47 28.581 17.4134 28.6215 17.3486 28.6619L17.3729 28.7105H17.381C17.4943 28.6943 17.6075 28.6781 17.7208 28.6619H17.7289C17.9393 28.6296 18.1496 28.5891 18.36 28.5487C18.4166 28.5406 18.4813 28.5244 18.538 28.5082C18.5784 28.5001 18.6108 28.4921 18.6512 28.484C18.7079 28.4758 18.7645 28.4597 18.8211 28.4516C18.8697 28.4354 18.9182 28.4273 18.9668 28.4111C19.7758 28.217 20.5606 27.95 21.313 27.6344C20.0266 29.3901 18.3033 30.8059 16.2888 31.7363C17.2192 31.6716 18.1496 31.5179 19.0477 31.259C22.3081 30.2962 25.0508 28.1037 26.6932 25.1507C26.3615 27.0196 25.6171 28.7995 24.5168 30.3528C25.3016 29.835 26.0217 29.2364 26.677 28.5568C28.4893 26.6636 29.6786 24.2607 30.0831 21.6798C30.3582 22.9581 30.4391 24.2769 30.3177 25.5795C36.159 17.4323 30.8031 8.98588 28.5621 6.76099C28.554 6.74482 28.5459 6.73672 28.5459 6.72054C28.5378 6.72864 28.5378 6.72864 28.5378 6.73671C28.5378 6.72861 28.5378 6.72861 28.5297 6.72054C28.5297 6.81763 28.5216 6.91471 28.5135 7.0118C28.4892 7.19788 28.465 7.37587 28.4326 7.55386C28.3922 7.73185 28.3436 7.90984 28.2951 8.08783C28.2384 8.25773 28.1737 8.43572 28.1009 8.60562C28.0281 8.76743 27.9472 8.93733 27.8582 9.09914C27.7692 9.25286 27.6721 9.41467 27.5669 9.5603C27.4618 9.71402 27.3485 9.85965 27.2352 9.99718C27.1139 10.1428 26.9844 10.2723 26.855 10.4017C26.7741 10.4745 26.7013 10.5392 26.6203 10.604C26.5556 10.6606 26.499 10.7091 26.4343 10.7658C26.2886 10.879 26.143 10.9842 25.9812 11.0813C25.8275 11.1784 25.6657 11.2755 25.5039 11.3564C25.334 11.4373 25.1641 11.5101 24.9942 11.5829C24.8243 11.6476 24.6463 11.7043 24.4683 11.7528C24.2903 11.8014 24.1042 11.8418 23.9262 11.8742C23.7401 11.9066 23.5541 11.9227 23.3761 11.9389C23.2466 11.947 23.1172 11.9551 22.9877 11.9551C22.8016 11.9551 22.6156 11.9389 22.4376 11.9227C22.2515 11.9065 22.0654 11.8822 21.8874 11.8418C21.7013 11.8094 21.5233 11.7609 21.3454 11.7043H21.3372C21.5152 11.6881 21.6932 11.6719 21.8712 11.6395C22.0573 11.6072 22.2353 11.5667 22.4133 11.5182C22.5913 11.4696 22.7693 11.413 22.9392 11.3483C23.1172 11.2835 23.2871 11.2026 23.4489 11.1217C23.6188 11.0408 23.7725 10.9518 23.9343 10.8547C24.088 10.7496 24.2417 10.6444 24.3874 10.5311C24.533 10.4179 24.6705 10.2965 24.8 10.1671C24.9375 10.0457 25.0589 9.90816 25.1802 9.77062C25.3016 9.625 25.4149 9.47937 25.52 9.33374C25.5362 9.30947 25.5524 9.27711 25.5686 9.25283C25.6495 9.12339 25.7304 8.99394 25.8032 8.86449C25.8922 8.70268 25.9731 8.54087 26.0459 8.37097C26.1187 8.20107 26.1834 8.03117 26.2401 7.85318C26.2967 7.68328 26.3372 7.50529 26.3776 7.3273C26.41 7.14122 26.4423 6.96323 26.4585 6.78524C26.4747 6.59916 26.4909 6.41307 26.4909 6.23509C26.4909 6.10564 26.4828 5.97619 26.4747 5.84674C26.4586 5.66066 26.4343 5.48267 26.41 5.30468C26.3776 5.1186 26.3372 4.94061 26.2887 4.76262C26.232 4.59272 26.1754 4.41473 26.1107 4.24483C26.0459 4.07493 25.965 3.90503 25.8841 3.74322C25.7951 3.58141 25.7061 3.4196 25.6091 3.26588C25.5039 3.11216 25.3987 2.96653 25.2854 2.8209C25.1641 2.68336 25.0427 2.54583 24.9133 2.40829C24.8485 2.34356 24.7757 2.27075 24.7029 2.20603C24.3388 1.92286 23.9586 1.65587 23.5783 1.41316C23.5217 1.38078 23.4732 1.35652 23.4165 1.33225C23.1495 1.16235 22.8987 1.07331 22.6479 0.992408Z" fill="#30302F"/>
</svg>
