<svg width="32" height="32" viewBox="0 0 32 32" fill="none" xmlns="http://www.w3.org/2000/svg">
<path d="M15.3572 32C12.6414 32 10.0368 30.9211 8.11641 29.0008C6.19604 27.0804 5.11719 24.4758 5.11719 21.76C5.11719 19.0442 6.19604 16.4396 8.11641 14.5192C10.0368 12.5989 12.6414 11.52 15.3572 11.52V32ZM15.3572 0H5.11719V10.24H15.3572V0ZM21.7572 10.24C23.1151 10.24 24.4174 9.70057 25.3776 8.74039C26.3378 7.7802 26.8772 6.47791 26.8772 5.12C26.8772 3.76209 26.3378 2.4598 25.3776 1.49961C24.4174 0.539427 23.1151 0 21.7572 0C20.3993 0 19.097 0.539427 18.1368 1.49961C17.1766 2.4598 16.6372 3.76209 16.6372 5.12C16.6372 6.47791 17.1766 7.7802 18.1368 8.74039C19.097 9.70057 20.3993 10.24 21.7572 10.24Z" fill="#30302F"/>
</svg>
