<svg width="32" height="32" viewBox="0 0 32 32" fill="none" xmlns="http://www.w3.org/2000/svg">
<g clip-path="url(#clip0_5712_1121)">
<path d="M15.9974 13.4765C16.4894 13.4766 16.9704 13.6221 17.3798 13.895C17.7892 14.1678 18.1088 14.5556 18.2983 15.0097C18.4877 15.4637 18.5387 15.9637 18.4446 16.4466C18.3505 16.9295 18.1157 17.3738 17.7697 17.7235C17.4236 18.0733 16.9819 18.3128 16.5 18.412C16.0181 18.5112 15.5176 18.4656 15.0616 18.281C14.6055 18.0963 14.2143 17.7809 13.9372 17.3744C13.66 16.9679 13.5093 16.4885 13.5041 15.9965C13.5023 15.6674 13.5654 15.3411 13.6898 15.0363C13.8141 14.7315 13.9973 14.4541 14.2288 14.2201C14.4603 13.9861 14.7357 13.8 15.0391 13.6724C15.3426 13.5449 15.6682 13.4783 15.9974 13.4765ZM9.82406 26.6632C10.6641 27.1699 12.4907 26.3965 14.6241 24.3965C13.911 23.5863 13.2391 22.7408 12.6107 21.8632C11.5353 21.7428 10.4671 21.5647 9.41073 21.3299C8.73073 24.1832 8.98406 26.1432 9.82406 26.6632ZM10.7707 19.0099L10.3841 18.3299C10.2333 18.7044 10.1042 19.0872 9.9974 19.4765C10.3574 19.5565 10.7574 19.6232 11.1707 19.6899L10.7707 19.0099ZM19.4907 17.9965L20.5707 15.9965L19.4907 13.9965C19.0907 13.2899 18.6641 12.6632 18.2774 12.0365C17.5574 11.9965 16.7974 11.9965 15.9974 11.9965C15.1974 11.9965 14.4374 11.9965 13.7174 11.9965C13.3307 12.6232 12.9041 13.2499 12.5041 13.9565L11.4241 15.9965L12.5041 17.9965C12.9041 18.7032 13.3307 19.3299 13.7174 19.9565C14.4374 19.9565 15.1974 19.9565 15.9974 19.9565C16.7974 19.9565 17.5574 19.9565 18.2774 19.9565C18.6641 19.3299 19.0907 18.7032 19.4907 17.9965ZM15.9974 9.03654C15.7441 9.32987 15.4774 9.63654 15.2107 9.99654H16.7841C16.5174 9.63654 16.2507 9.32987 15.9974 9.03654ZM15.9974 22.9565C16.2507 22.6632 16.5174 22.3565 16.7841 21.9965H15.2107C15.4774 22.3565 15.7441 22.6632 15.9974 22.9565ZM22.1574 5.32987C21.3307 4.82321 19.4907 5.59654 17.3707 7.59654C18.0838 8.40681 18.7557 9.25231 19.3841 10.1299C20.4585 10.2327 21.5267 10.3929 22.5841 10.6099C23.2641 7.75654 23.0107 5.79654 22.1574 5.27654M21.2241 12.9299L21.6107 13.6099C21.7615 13.2354 21.8906 12.8525 21.9974 12.4632C21.6374 12.3832 21.2374 12.3165 20.8241 12.2499L21.2241 12.9299ZM23.1574 3.59654C25.1174 4.71654 25.3307 7.66321 24.4907 11.1032C27.8774 12.1032 30.3174 13.7699 30.3174 16.0099C30.3174 18.2499 27.8774 19.9165 24.4907 20.9165C25.3174 24.3565 25.1041 27.3032 23.1574 28.4232C21.2107 29.5432 18.5574 28.2632 15.9974 25.8232C13.4374 28.2632 10.7841 29.5432 8.82406 28.4232C6.86406 27.3032 6.66406 24.4232 7.49073 20.9165C4.10406 19.9165 1.66406 18.2499 1.66406 16.0099C1.66406 13.7699 4.10406 12.0899 7.49073 11.0899C6.66406 7.64987 6.8774 4.70321 8.82406 3.58321C10.7707 2.46321 13.4374 3.74321 15.9974 6.18321C18.5574 3.74321 21.2107 2.46321 23.1574 3.58321M22.7707 15.9965C23.2338 16.9781 23.6433 17.984 23.9974 19.0099C26.7974 18.1699 28.3707 16.9699 28.3707 15.9965C28.3707 15.0232 26.7574 13.8232 23.9974 12.9832C23.6433 14.0091 23.2338 15.015 22.7707 15.9965ZM9.22406 15.9965C8.76099 15.015 8.3515 14.0091 7.9974 12.9832C5.1974 13.8232 3.62406 15.0232 3.62406 15.9965C3.62406 16.9699 5.2374 18.1699 7.9974 19.0099C8.3515 17.984 8.76099 16.9781 9.22406 15.9965ZM21.2241 19.0099L20.8241 19.6899C21.2374 19.6899 21.6374 19.5565 21.9974 19.4765C21.8906 19.0872 21.7615 18.7044 21.6107 18.3299L21.2241 19.0099ZM17.3307 24.3965C19.4507 26.3965 21.3307 27.1699 22.1174 26.6632C22.9041 26.1565 23.2241 24.2365 22.5441 21.3299C21.4867 21.5468 20.4185 21.707 19.3441 21.8099C18.7172 22.7056 18.0452 23.569 17.3307 24.3965ZM10.7707 12.9832L11.1707 12.3032C10.7574 12.3032 10.3574 12.4365 9.9974 12.5165C10.1042 12.9058 10.2333 13.2887 10.3841 13.6632L10.7707 12.9832ZM14.6641 7.59654C12.5041 5.59654 10.6641 4.82321 9.82406 5.32987C8.98406 5.83654 8.73073 7.75654 9.41073 10.6632C10.4681 10.4463 11.5363 10.286 12.6107 10.1832C13.2506 9.28653 13.9359 8.42317 14.6641 7.59654Z" fill="#30302F"/>
</g>
<defs>
<clipPath id="clip0_5712_1121">
<rect width="32" height="32" fill="white"/>
</clipPath>
</defs>
</svg>
