<svg width="32" height="32" viewBox="0 0 32 32" fill="none" xmlns="http://www.w3.org/2000/svg">
<path d="M15.6654 7.24798C10.4974 7.41223 8.96137 11.104 8.60938 13.104C9.06803 12.3626 10.5134 10.736 12.6414 10.736C15.1214 10.736 17.0094 13.504 18.1614 14.368C19.561 15.4177 22.3733 16.8037 26.0654 15.68C29.0094 14.784 30.3747 11.6586 30.6734 10.176C29.2494 12.112 27.0894 13.2748 24.4174 11.904C22.5774 10.96 21.2014 7.07201 15.6654 7.24798Z" fill="#30302F"/>
<path d="M8.35287 16.0312C3.18487 16.1954 1.64887 19.8872 1.29688 21.8872C1.75554 21.1458 3.20087 19.5192 5.32887 19.5192C7.80887 19.5192 9.69687 22.2872 10.8489 23.1512C12.2485 24.2009 15.0608 25.5869 18.7529 24.4632C21.6969 23.5672 23.0622 20.4418 23.3609 18.9592C21.9369 20.8952 19.7769 22.058 17.1049 20.6872C15.2649 19.7432 13.8889 15.8552 8.35287 16.0312Z" fill="#30302F"/>
</svg>
