<svg width="28" height="32" viewBox="0 0 28 32" fill="none" xmlns="http://www.w3.org/2000/svg">
<g clip-path="url(#clip0_5712_1136)">
<path d="M3.9936 25.6508H6.29991V26.8209H3.99371V29.4762C3.98907 29.6667 4.01521 29.8568 4.07114 30.039C4.11348 30.1742 4.18876 30.2968 4.29021 30.3957C4.38797 30.4878 4.50686 30.5545 4.63643 30.5899C4.76601 30.6245 4.89915 30.6434 5.03302 30.6461L5.09042 30.6463C5.21107 30.6463 5.33571 30.6463 5.46424 30.6294L5.54051 30.6199L5.68834 30.6031C5.73671 30.5975 5.78434 30.5913 5.83166 30.5834L5.90091 30.5724L6.031 30.5531C6.07308 30.5468 6.11389 30.5401 6.15428 30.5322L6.2506 30.5129L6.2954 30.5034L6.37828 30.485L6.41668 30.4759L6.57154 31.566C6.44691 31.6362 6.31489 31.6925 6.17789 31.7338C6.02275 31.7829 5.86458 31.8219 5.7044 31.8506C5.53653 31.8821 5.36194 31.9058 5.1796 31.9228C5.00211 31.9395 4.82394 31.9478 4.64567 31.9478C4.33462 31.9522 4.02478 31.908 3.72743 31.8166C3.46243 31.7341 3.22063 31.5902 3.02164 31.3967C2.81662 31.196 2.66196 30.9497 2.57028 30.6778C2.45627 30.34 2.40213 29.9848 2.41028 29.6283V26.8209H0.996094V25.6508H2.4063V24.1382H3.99371L3.9936 25.6508ZM9.64659 28.7218V31.8284H8.04197V23.5151H10.8349C11.2572 23.5098 11.6782 23.5646 12.0851 23.6777C12.4325 23.7736 12.7581 23.9358 13.044 24.1553C13.307 24.3648 13.5154 24.6349 13.6515 24.9424C13.8009 25.2842 13.8742 25.6543 13.8666 26.0272C13.8701 26.2981 13.8344 26.5681 13.7604 26.8288C13.6336 27.282 13.3606 27.6805 12.9837 27.9623C12.792 28.1075 12.5842 28.2303 12.3646 28.3283L14.1513 31.7588V31.8336H12.4262L10.8626 28.7218H9.64659ZM9.64784 27.4179H10.835C11.0581 27.4223 11.2803 27.3867 11.4909 27.313C11.6672 27.2504 11.8254 27.1454 11.9515 27.0073C12.0497 26.8978 12.1251 26.7697 12.1731 26.6307C12.2201 26.4882 12.2457 26.3396 12.249 26.1897L12.2492 26.1335C12.2531 25.934 12.2193 25.7355 12.1495 25.5485C12.0868 25.3856 11.984 25.2412 11.8505 25.1287C11.722 25.025 11.5744 24.9474 11.4161 24.9004C11.2466 24.851 11.0713 24.8242 10.8947 24.8207L9.64784 24.8204V27.4179ZM16.766 31.8284H15.1642V23.5151H18.007C18.4246 23.5092 18.84 23.5758 19.2348 23.7119C19.5797 23.8309 19.8979 24.0163 20.1715 24.2576C20.4261 24.4941 20.6274 24.7821 20.7619 25.1025C20.8954 25.4262 20.9662 25.7724 20.9705 26.1226V26.1926C20.9742 26.548 20.9031 26.9002 20.7619 27.2263C20.6261 27.5376 20.4247 27.8159 20.1715 28.0423C19.897 28.2837 19.5773 28.4683 19.231 28.5854C18.8358 28.72 18.4204 28.7857 18.003 28.7795H16.7646L16.766 31.8284ZM16.766 27.4782H18.0044C18.2073 27.4823 18.4091 27.4471 18.5986 27.3746C18.7575 27.3122 18.9015 27.217 19.021 27.0952C19.1308 26.9776 19.2152 26.8387 19.269 26.6872C19.3246 26.5323 19.353 26.3689 19.353 26.2044C19.3542 26.0205 19.3259 25.8376 19.269 25.6626C19.2171 25.5004 19.1327 25.3504 19.021 25.2218C18.903 25.0939 18.759 24.9928 18.5986 24.9254C18.41 24.8491 18.2078 24.812 18.0044 24.8165H16.766V27.4782ZM27.577 30.3551C27.4301 30.6793 27.2195 30.9706 26.9577 31.2118C26.6886 31.4531 26.3742 31.6386 26.0329 31.7575C25.6762 31.8797 25.3022 31.944 24.9252 31.9479L24.8444 31.9478C24.523 31.9516 24.2029 31.9074 23.8946 31.8166C23.6127 31.7324 23.3467 31.6021 23.1075 31.4308C22.891 31.2717 22.6996 31.0811 22.5394 30.8654C22.3709 30.6395 22.2299 30.3942 22.1197 30.1348C22.0047 29.8514 21.9198 29.5568 21.8665 29.2558C21.8059 28.9203 21.776 28.58 21.7772 28.2391V27.1201C21.7765 26.7996 21.8033 26.4796 21.8573 26.1637C21.9017 25.9074 21.9702 25.6559 22.0619 25.4124L22.0973 25.3215C22.2133 25.017 22.3752 24.7321 22.5775 24.4766C22.7691 24.2351 22.996 24.0237 23.2505 23.8497C23.4791 23.7021 23.7285 23.5893 23.9903 23.5151C24.2458 23.4423 24.5096 23.4031 24.7751 23.3986L24.8549 23.3983C25.2693 23.3912 25.6818 23.4569 26.0736 23.5924C26.4127 23.7089 26.7227 23.8972 26.9824 24.1445C27.242 24.3917 27.4453 24.6921 27.5783 25.025C27.7292 25.3987 27.8217 25.7934 27.8525 26.1952H26.2546C26.2451 25.9728 26.2082 25.7524 26.1444 25.5393C26.093 25.3672 26.0063 25.2078 25.89 25.071C25.772 24.9466 25.6263 24.8518 25.4649 24.7941C25.2691 24.727 25.0631 24.6951 24.8562 24.6997C24.7378 24.6993 24.6198 24.713 24.5047 24.7404C24.3997 24.7659 24.2991 24.8061 24.2055 24.8597C24.045 24.9579 23.9102 25.0928 23.812 25.2534C23.6971 25.4372 23.6088 25.6364 23.5496 25.845C23.4978 26.0349 23.4618 26.2289 23.442 26.4248C23.4181 26.6513 23.4067 26.8791 23.4079 27.1069V28.2365C23.4053 28.5334 23.4233 28.8302 23.4617 29.1246C23.491 29.3577 23.5474 29.5867 23.6295 29.8068C23.6789 29.9321 23.7433 30.051 23.8211 30.161C23.8911 30.2617 23.9771 30.3503 24.0756 30.4233C24.1793 30.5 24.2963 30.5569 24.4206 30.5912C24.559 30.6294 24.7021 30.648 24.8457 30.6463C25.0372 30.6486 25.2279 30.6216 25.4111 30.5663C25.5717 30.5168 25.7186 30.4306 25.8401 30.3145C25.9648 30.1906 26.0603 30.0404 26.1196 29.8749C26.1954 29.6676 26.2396 29.4501 26.2507 29.2296H27.8551C27.832 29.6186 27.7377 30.0001 27.5771 30.3551H27.577ZM20.5507 9.69464L24.5886 12.0259V16.6908L20.5507 19.0221L18.7582 17.9854L14.3994 20.5017L10.0667 17.9997L8.29923 19.022L4.26135 16.6869V12.0257L8.29923 9.69453L12.3371 12.0258V16.6868L11.1155 17.3932L14.3994 19.2895L17.7093 17.3787L16.5127 16.6868V12.0257L20.5507 9.69464ZM17.5622 13.2407V16.086L20.0259 17.5082V14.6628L17.5622 13.2407ZM23.5391 13.2368L21.0754 14.6588V17.5082L23.5391 16.0822V13.2368ZM5.31085 13.2368V16.0822L7.77443 17.5042V14.6588L5.31085 13.2368ZM11.2876 13.2368L8.82403 14.6587V17.5041L11.2877 16.082V13.2367L11.2876 13.2368ZM20.5507 10.9095L18.087 12.3315L20.5507 13.755L23.0143 12.3315L20.5507 10.9095ZM8.29923 10.9056L5.83554 12.3315L8.29923 13.7511L10.7629 12.3315L8.29923 10.9056ZM10.3077 3.67465V4.8854L6.57154 7.04357V10.6918L5.52205 11.2979V6.43725L10.3076 3.67454L10.3077 3.67465ZM14.3455 0L18.3862 2.33117V3.61317L23.2767 6.43725V11.2676L22.2272 10.6615V7.04336L18.3862 4.82529V6.99352L14.3482 9.32469L10.3103 6.99352V2.33117L14.3455 0ZM11.3599 3.54203V6.38741L13.821 7.80947V4.96535L11.3599 3.54203ZM17.3341 3.54203L14.8731 4.96535V7.80821L17.3339 6.38741V3.54203H17.3341ZM14.3457 1.21212L11.8845 2.63418L14.3455 4.05624L16.8092 2.63418L14.3457 1.21212Z" fill="#30302F"/>
</g>
<defs>
<clipPath id="clip0_5712_1136">
<rect width="26.88" height="32" fill="white" transform="translate(0.996094)"/>
</clipPath>
</defs>
</svg>
