<svg width="33" height="32" viewBox="0 0 33 32" fill="none" xmlns="http://www.w3.org/2000/svg">
<g clip-path="url(#clip0_5712_1130)">
<path d="M28.1961 0H5.79609C3.14513 0 0.996094 2.14903 0.996094 4.8V27.2C0.996094 29.851 3.14513 32 5.79609 32H28.1961C30.8471 32 32.9961 29.851 32.9961 27.2V4.8C32.9961 2.14903 30.8471 0 28.1961 0Z" fill="#30302F"/>
<path d="M15.5625 17.7498H19.5625V15.1873H8.375V17.7498H12.375V29.1873H15.5625V17.7498ZM20.8125 28.5623C21.3188 28.8248 21.9375 29.0186 22.625 29.1498C23.3125 29.2811 24.0625 29.3436 24.8125 29.3436C25.5625 29.3436 26.25 29.2748 26.9375 29.1311C27.625 28.9873 28.1875 28.7498 28.6875 28.4436C29.1938 28.1123 29.625 27.6936 29.875 27.1311C30.125 26.5686 30.3188 25.9436 30.3188 25.1311C30.3188 24.5623 30.2313 24.0686 30.0625 23.6311C29.8937 23.1936 29.65 22.8186 29.3125 22.5061C28.9937 22.1748 28.625 21.8811 28.1875 21.6311C27.75 21.3811 27.25 21.1186 26.6875 20.8811C26.275 20.7123 25.9375 20.5498 25.5625 20.3873C25.2375 20.2248 24.9562 20.0623 24.75 19.8998C24.5187 19.7311 24.3438 19.5561 24.2188 19.3748C24.0938 19.1873 24.0312 18.9811 24.0312 18.7498C24.0312 18.5373 24.0869 18.3436 24.2 18.1686C24.3131 17.9936 24.4688 17.8498 24.6688 17.7248C24.8688 17.5998 25.1188 17.5061 25.4188 17.4373C25.7125 17.3686 26.0375 17.3373 26.4188 17.3373C26.6813 17.3373 26.9563 17.3567 27.2313 17.3961C27.5188 17.4355 27.8125 17.4961 28.1063 17.5773C28.4 17.6586 28.6875 17.7586 28.9813 17.8836C29.2563 18.0086 29.5125 18.1523 29.7313 18.3148V15.3773C29.2563 15.1961 28.7313 15.0586 28.1688 14.9711C27.6063 14.8836 26.9813 14.8398 26.2313 14.8398C25.4813 14.8398 24.7938 14.9211 24.1063 15.0773C23.4188 15.2336 22.8563 15.4836 22.3563 15.8273C21.85 16.1648 21.4813 16.5773 21.1688 17.1398C20.875 17.6648 20.7313 18.2648 20.7313 19.0148C20.7313 19.9523 21 20.7648 21.5438 21.3898C22.0813 22.0773 22.9188 22.5773 23.9813 23.0773C24.4125 23.2523 24.7938 23.4273 25.1688 23.5961C25.5438 23.7648 25.8563 23.9398 26.1063 24.1211C26.375 24.3023 26.5875 24.5023 26.7313 24.7148C26.8875 24.9273 26.9688 25.1773 26.9688 25.4648C26.9688 25.6648 26.92 25.8523 26.825 26.0273C26.73 26.2023 26.5813 26.3523 26.3813 26.4773C26.1812 26.6023 25.9375 26.7023 25.6313 26.7773C25.3375 26.8461 25.0063 26.8836 24.5688 26.8836C23.8813 26.8836 23.1938 26.7648 22.5688 26.5273C21.8813 26.2898 21.2563 25.9336 20.8125 25.5623V28.5623Z" fill="white"/>
</g>
<defs>
<clipPath id="clip0_5712_1130">
<rect width="32" height="32" fill="white" transform="translate(0.996094)"/>
</clipPath>
</defs>
</svg>
