<svg width="32" height="32" viewBox="0 0 32 32" fill="none" xmlns="http://www.w3.org/2000/svg">
<g style="mix-blend-mode:luminosity" clip-path="url(#clip0_5712_1124)">
<path d="M14.4382 0.0680324C11.3007 0.411782 8.35072 1.62428 5.96947 3.54303C5.16322 4.19303 3.84447 5.54928 3.26322 6.32428C1.60697 8.53678 0.550718 11.0618 0.150717 13.7805C0.0132175 14.6993 -0.0305325 16.4555 0.0569675 17.3743C0.319467 20.0805 1.18197 22.5805 2.58822 24.7118C5.17572 28.643 9.13197 31.1618 13.782 31.8493C14.7007 31.9868 16.457 32.0305 17.3757 31.943C20.082 31.6805 22.582 30.818 24.7132 29.4118C28.6445 26.8243 31.1632 22.868 31.8507 18.218C31.9882 17.2993 32.032 15.543 31.9445 14.6243C31.6257 11.3493 30.457 8.44928 28.457 5.96803C27.807 5.16178 26.4507 3.84303 25.6757 3.26178C23.4632 1.60553 20.957 0.561782 18.2195 0.149282C17.4632 0.0367824 15.1757 -0.0132176 14.4382 0.0680324ZM20.1195 14.743C22.2882 18.5368 24.0632 21.6493 24.0632 21.6618C24.0632 21.6743 20.507 21.6868 16.157 21.6868C11.807 21.6868 8.25072 21.6743 8.25072 21.6555C8.25072 21.6055 16.1445 7.80553 16.1632 7.83053C16.1695 7.83678 17.957 10.9493 20.1195 14.743Z" fill="#30302F"/>
</g>
<defs>
<clipPath id="clip0_5712_1124">
<rect width="32" height="32" fill="white"/>
</clipPath>
</defs>
</svg>
