<?xml version="1.0" encoding="UTF-8"?>
<!DOCTYPE svg PUBLIC "-//W3C//DTD SVG 1.1//EN" "http://www.w3.org/Graphics/SVG/1.1/DTD/svg11.dtd">
<!-- Creator: CorelDRAW 2020 (64-Bit) -->
<svg xmlns="http://www.w3.org/2000/svg" xml:space="preserve" width="5.08621in" height="1.3088in" version="1.1" style="shape-rendering:geometricPrecision; text-rendering:geometricPrecision; image-rendering:optimizeQuality; fill-rule:evenodd; clip-rule:evenodd"
viewBox="0 0 5086.21 1308.8"
 xmlns:xlink="http://www.w3.org/1999/xlink"
 xmlns:xodm="http://www.corel.com/coreldraw/odm/2003">
 <defs>
  <style type="text/css">
   <![CDATA[
    .fil0 {fill:#009933}
    .fil3 {fill:#01A9AA}
    .fil4 {fill:#01A9EA}
    .fil6 {fill:#01B8F1}
    .fil5 {fill:#1074BF}
    .fil8 {fill:#7ED2F6}
    .fil2 {fill:#86CE9D}
    .fil7 {fill:#BFDEA5}
    .fil1 {fill:#373435;fill-rule:nonzero}
   ]]>
  </style>
 </defs>
 <g id="Layer_x0020_1">
  <metadata id="CorelCorpID_0Corel-Layer"/>
  <g id="_2282500118128">
   <path class="fil0" d="M5086.21 708.95l0 -3.55 0 -100.71 -537.29 0 -22.89 0 -429.77 0 -21.61 0 -802.32 0 -10.17 0 -617.95 0 -11.44 0 -619.22 0 -29.24 0 -189.46 0 -34.33 0 -527.21 0c-33.92,-1.98 -67.73,-8.57 -100.91,-34.21l0 34.21 0 0.65 0 103.61 259.39 0 0 83.92 -43.23 0c-105.53,0 -180.55,59.76 -180.55,170.38l0 114.44c-1.27,110.62 75.02,170.38 180.55,170.38 92.82,0 167.84,-62.31 167.84,-158.94l0 -194.54 97.91 0 0 349.94 -29.39 55.67 29.39 0 0.83 0 121.59 0 0.91 0 29.3 0 -29.3 -55.5 0 -535.76 22.89 0 0 0.13 64.85 0 0 535.51 -29.36 55.61 29.36 0 0.85 0 119.69 0 0.25 0 29.97 0 -29.97 -56.77 0 -534.35 67.39 0 0 -0.13 455.2 0 0 72.48 -261.93 0c-97.91,0 -179.29,62.3 -179.29,157.66l0 136.05c0,106.81 75.02,172.93 181.83,172.93 100.45,0 164.02,-67.39 164.02,-165.3l0 -148.76 -122.06 0 0 0.01 -30.21 0 30.21 53.46 0 94.03c0,33.06 -7.63,63.57 -47.05,63.57 -40.69,0 -55.94,-25.43 -55.94,-62.31l0 -143.68c0,-39.41 29.24,-52.13 63.57,-52.13l256.84 0 0 356.72 -29.84 56.52 29.84 0 0.38 0 119.81 0 0.61 0 29.61 0 -29.61 -56.09 0 -535.17 43.23 0 11.44 0 226.33 0 0 159.37c0,34.12 -31.79,49.17 -64.85,49.17 -3.81,0 -8.9,-1.28 -13.99,-1.28l0 -60.9 30.61 -54.17 -30.61 0 0 -0 -120.79 0 0 0 -31.79 0 31.79 56.24 0 258.45c0,119.52 97.91,184.37 207.26,184.37 39.42,0 89,-8.9 122.07,-26.7l0 -116.98c-38.15,27.98 -75.02,35.6 -114.44,35.6 -40.69,0 -94.09,-26.7 -94.09,-75.02l0 -96.63c10.17,2.54 22.89,3.81 35.61,3.81 58.49,0 111.89,-25.43 141.14,-68.66l0 67.39 128.42 0 0 220.35 -30.01 56.84 30.01 0 0.2 0 118.04 0 2.55 0 27.67 0 -27.67 -52.4 0 -538.85 44.5 0 0 0.13 237.77 0 0 148.64c0,45.77 -31.79,64.85 -64.85,64.85 -3.81,0 -8.89,-1.28 -13.98,-1.28l0 -64.93 31.54 -55.81 -31.54 0 0 -0.04 -120.79 0 0 0.04 -29.92 0 29.92 52.93 0 201.33c0,132.24 81.37,245.4 283.54,245.4 132.24,0 225.06,-50.86 317.88,-129.69 2.54,-1.27 3.81,-2.54 6.35,-2.54l0 75.34 -30.04 56.9 30.04 0 0.18 0 120.17 0 0.46 0 29.76 0 -29.76 -56.37 0 -536.15 45.77 0 21.61 0 22.89 0 0 357.5c0,114.22 76.29,182.89 188.18,182.89 120.8,0 174.2,-78.83 174.2,-193.06l0 -345.93 67.39 0 0 -0.13 267.01 0 0 44.51 -83.91 0c-81.38,0 -143.69,57.22 -143.69,137.32 0,76.29 59.76,133.5 143.69,133.5l61.03 0c45.77,0 71.2,29.24 71.2,71.2l0 15.26c0,57.22 -35.6,83.92 -85.19,83.92 -47.04,0 -100.45,-30.52 -106.81,-105.54l-108.07 72.48c25.43,72.48 87.74,138.59 216.16,138.59 106.81,0 204.71,-57.22 204.71,-184.37l0 -35.61c0,-91.55 -73.74,-158.94 -171.65,-158.94l-67.39 0c-21.61,0 -35.6,-12.71 -35.6,-31.79 0,-17.8 15.26,-33.06 35.6,-33.06l193.27 0 0 -147.5 73.49 0c24.69,4.04 49.24,12.6 73.45,31.31l0 -31.31zm-3693.17 367.47c0,38.14 -7.63,63.57 -48.32,63.57 -45.77,0 -57.22,-24.16 -57.22,-68.66l0 -101.72c0,-44.5 12.71,-72.48 57.22,-72.48l48.32 0 0 179.28zm221.24 -283.55l-99.18 0 0 -83.92 99.18 0 0 83.92zm1482.57 125.88l-111.9 0c3.82,-13.77 6.36,-27.76 6.36,-44.29l0 -165.51 105.54 0 0 209.8zm811.22 130.97c-26.7,24.16 -54.67,38.14 -89,38.14 -33.06,0 -64.85,-21.61 -64.85,-59.76l0 -91.55c0,-38.15 31.79,-59.76 64.85,-59.76 26.7,0 50.86,10.17 66.11,25.43l0 -104.26c-24.16,-17.8 -44.5,-25.43 -78.83,-25.43 -82.65,0 -170.38,55.95 -170.38,152.59l0 113.16c0,61.03 35.6,106.81 82.65,130.96 -43.23,19.07 -82.65,30.52 -127.15,30.52 -128.42,0 -170.38,-73.75 -170.38,-143.68l0 -33.06c10.17,2.55 22.89,3.81 35.6,3.81 89,0 164.02,-61.04 164.02,-162.75l0 -156.39 287.36 0 0 342.04zm457.74 -342.04l0 346.06c0,47.04 -12.71,87.52 -62.3,87.52 -45.78,0 -68.66,-34.11 -68.66,-78.62l0 -354.96 130.96 0z"/>
   <path class="fil1" d="M2424.85 479l-52.15 0 -5.84 -11.68 86.05 0 5.84 11.68 -22.35 0 0 75.77 -11.54 -5.84 0 -36.5 -28.2 0c-2.24,0 -3.58,1.68 -4.02,5.04 -0.48,3.8 -1.53,6.06 -3.14,6.79 -0.87,0.39 -1.8,0.58 -2.78,0.58 -4.92,0 -8.47,-3.99 -10.67,-11.97 -0.58,-2.09 -0.87,-3.85 -0.87,-5.26 0,-3.06 1.39,-5.01 4.16,-5.84 1.56,-0.49 4.99,-0.73 10.3,-0.73l35.21 0 0 -22.05zm102.56 43.94c3.99,-2.78 8.04,-7.69 12.13,-14.75l0 -29.2 -37.55 0 0 34.02c0,6.61 2.05,11.04 6.14,13.28 2.04,1.12 4.16,1.68 6.35,1.68 3.85,0 8.16,-1.68 12.93,-5.04zm-37.69 -43.94l-4.92 0 -5.89 -11.68 89.99 0 5.85 11.68 -22.93 0 0 75.77 -12.28 -5.84 0 -24.53c-3.75,5.4 -9.2,8.91 -16.36,10.51 -2.09,0.49 -4.04,0.73 -5.84,0.73 -3.46,0 -6.96,-1.02 -10.52,-3.06 -5.06,-2.92 -8.69,-5.45 -10.88,-7.59 -4.14,-4.04 -6.21,-8.56 -6.21,-13.57l0 -32.41zm127.39 38.11c-5.41,0.24 -12.18,-0.83 -20.31,-3.21 -3.36,5.16 -7.5,10.32 -12.42,15.48 -2.73,2.92 -4.09,5.59 -4.09,8.03 0,2.63 1.46,4.72 4.38,6.28 2.53,1.36 5.02,1.9 7.45,1.61 5.31,-0.68 8.67,-2.43 10.08,-5.26 -1.37,-1.21 -2.05,-2.7 -2.05,-4.45 0,-3.6 2.54,-6.01 7.6,-7.23 0.68,-0.15 1.39,-0.22 2.12,-0.22 2.73,0 5.11,0.87 7.16,2.63 2.24,1.94 3.24,4.41 2.99,7.37 -0.24,2.87 -2.19,5.59 -5.84,8.17l8.18 14.6c-0.05,0.39 -0.58,0.97 -1.63,1.78 -1.04,0.8 -1.58,1.43 -1.58,1.87l-9.2 -15.19c-5.11,3.8 -10.03,5.7 -14.76,5.7 -0.68,0 -1.36,-0.03 -2.05,-0.07 -7.26,-0.54 -12.27,-3.02 -15.05,-7.45 -2.33,-3.7 -3.5,-8.37 -3.5,-13.96 0,-1.8 0.2,-3.28 0.58,-4.45 2.34,-7.01 5.31,-13.33 8.91,-19 -2.09,-0.68 -4.28,-2 -6.57,-3.94 -2.29,-1.94 -4.53,-3.89 -6.72,-5.84 -3.02,-2.43 -4.53,-6.91 -4.53,-13.43 0,-4.6 0.97,-8.25 2.92,-10.98 3.65,-5.06 8.96,-7.59 15.92,-7.59 3.07,0 5.89,0.63 8.48,1.9 8.47,4.09 12.71,10.49 12.71,19.2 0,5.16 -1.27,10.14 -3.8,14.96 2.78,1.21 6.28,1.82 10.52,1.82 1.27,0 2.58,-0.07 3.95,-0.22 6.37,-0.58 12.8,-2.87 19.28,-6.86l0 -20.15 -17.68 0 -5.84 -11.68 51.13 0 5.84 11.68 -21.77 0 0 75.77 -11.69 -5.84 0 -37.52c0,0 -2.07,0.83 -6.21,2.48 -4.82,1.94 -9.13,3.02 -12.93,3.21zm-25.13 -15.48c3.07,-5.06 4.6,-10.71 4.6,-16.94 0,-3.21 -0.7,-5.55 -2.11,-7.01 -1.8,-1.8 -4.07,-2.7 -6.8,-2.7 -4.28,0 -7.77,1.58 -10.44,4.74 -1.56,1.85 -2.33,4.04 -2.33,6.57 0,3.31 1.07,6.04 3.21,8.18 4.82,4.82 9.09,7.22 12.78,7.22 0.39,0 0.76,-0.02 1.09,-0.07zm83.13 73.87c4.04,-2.63 7.3,-5.87 9.79,-9.71 2.04,-3.26 3.07,-6.06 3.07,-8.39 0,-0.98 -0.24,-1.61 -0.73,-1.9 0.19,-0.29 -0.93,-0.56 -3.36,-0.8 -3.22,-0.24 -5.67,-0.76 -7.38,-1.54 -2.78,-1.22 -4.26,-3.16 -4.46,-5.84 -0.24,-3.31 0.78,-5.87 3.07,-7.67 1.9,-1.41 4.14,-2.12 6.72,-2.12 3.12,0 5.89,0.95 8.33,2.85 3.61,2.82 5.41,7.28 5.41,13.36 0,5.31 -2.53,10.76 -7.59,16.35 -4.14,4.57 -7.94,7.44 -11.4,8.61l-1.46 -3.21zm116.14 -96.5l-52.15 0 -5.84 -11.68 86.05 0 5.84 11.68 -22.35 0 0 75.77 -11.54 -5.84 0 -36.5 -28.2 0c-2.24,0 -3.58,1.68 -4.02,5.04 -0.49,3.8 -1.53,6.06 -3.14,6.79 -0.87,0.39 -1.8,0.58 -2.78,0.58 -4.92,0 -8.47,-3.99 -10.66,-11.97 -0.59,-2.09 -0.88,-3.85 -0.88,-5.26 0,-3.06 1.39,-5.01 4.16,-5.84 1.56,-0.49 4.99,-0.73 10.3,-0.73l35.2 0 0 -22.05zm72.9 0l-11.08 0 -5.87 -11.68 18.63 0c0.29,-10.05 1.26,-17.2 2.92,-21.44 2.92,-7.52 8.52,-11.26 16.8,-11.26 6.33,0 12.78,2.07 19.36,6.23 7.94,5.01 13.22,11.75 15.85,20.2l-1.02 0c-2.24,-4.04 -6.16,-7.64 -11.76,-10.8 -5.6,-3.17 -10.84,-4.74 -15.7,-4.74 -1.27,0 -2.44,0.12 -3.5,0.36 -6.33,1.51 -10.62,4.55 -12.86,9.13 -0.93,1.94 -1.8,6.06 -2.63,12.33l20.09 0 5.85 11.68 -23.38 0 0 75.77 -11.69 -5.84 0 -69.93zm19.72 -11.68l83.71 0 5.85 11.68 -22.06 0 0 75.77 -12.27 -5.84 0 -23.21c-8.52,5.11 -16.36,8.22 -23.52,9.34 -0.98,0.15 -1.98,0.22 -3,0.22 -4.82,0 -9.35,-1.7 -13.59,-5.11 -3.56,-2.87 -5.82,-5.86 -6.8,-8.98 -1.07,-3.41 -1.61,-6.72 -1.61,-9.93 0,-5.11 1.31,-9.42 3.94,-12.9 2.63,-3.48 6.28,-5.5 10.96,-6.08 2,-0.24 3.97,-0.37 5.92,-0.37 10.66,0 19.89,3.24 27.69,9.71l0 -22.63 -50.84 0 -4.38 -11.68zm55.22 45.7l0 -9.2c-5.65,-1.46 -11.88,-2.19 -18.7,-2.19 -5.6,0 -10.23,0.63 -13.88,1.9 -2.92,0.97 -5.5,2.72 -7.74,5.26 -2.39,2.68 -3.58,5.38 -3.58,8.1 0,0.78 0.12,1.53 0.37,2.26 0.73,2.43 2.75,4.41 6.06,5.91 2.97,1.36 6.13,2.04 9.5,2.04 1.75,0 3.24,-0.22 4.46,-0.66 3.85,-1.36 7.4,-3.11 10.66,-5.26 6.48,-4.24 10.76,-6.96 12.86,-8.17zm66.91 9.93c4,-2.78 8.04,-7.69 12.13,-14.75l0 -29.2 -37.54 0 0 34.02c0,6.61 2.05,11.04 6.13,13.28 2.05,1.12 4.17,1.68 6.36,1.68 3.85,0 8.15,-1.68 12.93,-5.04zm-37.69 -43.94l-4.92 0 -5.89 -11.68 89.99 0 5.84 11.68 -22.93 0 0 75.77 -12.28 -5.84 0 -24.53c-3.75,5.4 -9.2,8.91 -16.36,10.51 -2.09,0.49 -4.04,0.73 -5.84,0.73 -3.46,0 -6.96,-1.02 -10.52,-3.06 -5.07,-2.92 -8.69,-5.45 -10.89,-7.59 -4.14,-4.04 -6.21,-8.56 -6.21,-13.57l0 -32.41zm127.39 38.11c-5.41,0.24 -12.18,-0.83 -20.31,-3.21 -3.36,5.16 -7.5,10.32 -12.42,15.48 -2.73,2.92 -4.09,5.59 -4.09,8.03 0,2.63 1.46,4.72 4.38,6.28 2.53,1.36 5.02,1.9 7.45,1.61 5.3,-0.68 8.67,-2.43 10.08,-5.26 -1.37,-1.21 -2.05,-2.7 -2.05,-4.45 0,-3.6 2.54,-6.01 7.6,-7.23 0.68,-0.15 1.39,-0.22 2.12,-0.22 2.73,0 5.11,0.87 7.16,2.63 2.24,1.94 3.24,4.41 3,7.37 -0.24,2.87 -2.19,5.59 -5.84,8.17l8.18 14.6c-0.05,0.39 -0.59,0.97 -1.63,1.78 -1.05,0.8 -1.58,1.43 -1.58,1.87l-9.2 -15.19c-5.11,3.8 -10.03,5.7 -14.75,5.7 -0.68,0 -1.37,-0.03 -2.05,-0.07 -7.26,-0.54 -12.27,-3.02 -15.05,-7.45 -2.34,-3.7 -3.51,-8.37 -3.51,-13.96 0,-1.8 0.2,-3.28 0.59,-4.45 2.33,-7.01 5.31,-13.33 8.91,-19 -2.09,-0.68 -4.29,-2 -6.58,-3.94 -2.28,-1.94 -4.53,-3.89 -6.72,-5.84 -3.02,-2.43 -4.53,-6.91 -4.53,-13.43 0,-4.6 0.98,-8.25 2.93,-10.98 3.65,-5.06 8.96,-7.59 15.92,-7.59 3.07,0 5.89,0.63 8.47,1.9 8.48,4.09 12.71,10.49 12.71,19.2 0,5.16 -1.27,10.14 -3.8,14.96 2.78,1.21 6.28,1.82 10.52,1.82 1.27,0 2.58,-0.07 3.94,-0.22 6.38,-0.58 12.81,-2.87 19.28,-6.86l0 -20.15 -17.68 0 -5.85 -11.68 51.14 0 5.84 11.68 -21.77 0 0 75.77 -11.69 -5.84 0 -37.52c0,0 -2.07,0.83 -6.21,2.48 -4.82,1.94 -9.13,3.02 -12.93,3.21zm-25.13 -15.48c3.07,-5.06 4.6,-10.71 4.6,-16.94 0,-3.21 -0.7,-5.55 -2.11,-7.01 -1.81,-1.8 -4.07,-2.7 -6.8,-2.7 -4.29,0 -7.77,1.58 -10.44,4.74 -1.56,1.85 -2.34,4.04 -2.34,6.57 0,3.31 1.07,6.04 3.21,8.18 4.82,4.82 9.08,7.22 12.78,7.22 0.39,0 0.76,-0.02 1.09,-0.07zm131.33 30.07l-1.9 -16.5c-1.95,-16.93 -2.92,-32.21 -2.92,-45.84 0,-3.84 0.41,-6.64 1.24,-8.39 1.27,-2.68 3.68,-4.02 7.23,-4.02 3.31,0 5.62,0.88 6.94,2.63 0.97,1.41 1.46,3.72 1.46,6.93 0,0.78 -0.03,1.83 -0.07,3.14 -0.73,15.33 -2.48,30.37 -5.26,45.11l-3.22 16.93 -3.51 0zm-7.59 15.48c0,-2.87 0.93,-5.23 2.75,-7.06 1.82,-1.82 4.06,-2.72 6.74,-2.72 2.68,0 5.02,0.97 6.99,2.92 1.97,1.95 2.94,4.23 2.94,6.86 0,2.92 -1.12,5.23 -3.36,6.93 -1.9,1.41 -4.09,2.12 -6.58,2.12 -2.38,0 -4.45,-0.68 -6.2,-2.04 -2.19,-1.61 -3.29,-3.94 -3.29,-7.01zm156.61 -68.18l-35.21 0c2.92,5.74 4.53,12.36 4.82,19.85 0.1,2.58 -1.17,7.64 -3.8,15.19 3.51,0.39 9.5,0.83 17.97,1.31 4.77,0.1 10.18,-1.9 16.22,-5.99l0 -30.37zm-42.95 0l-23.67 0 -4.39 -11.68 100.08 0 5.84 11.68 -22.65 0 0 75.77 -12.27 -5.84 0 -27.89c-1.76,0.78 -3.53,1.46 -5.33,2.04 -4.23,1.36 -8.15,2.14 -11.76,2.33 -4.12,0.2 -10.3,-1.75 -18.53,-5.84 -2.68,3.56 -4.77,5.81 -6.28,6.84 -1.7,1.41 -3.6,2.43 -5.7,3.07l16.46 27.2 -5.67 -0.02 -17.39 -28.47c-6.86,-4.33 -10.3,-8.25 -10.3,-11.75 0,-1.31 0.61,-2.56 1.8,-3.7 1.19,-1.14 2.41,-1.7 3.67,-1.7 1.27,0 2.78,0.75 4.5,2.29 1.73,1.53 2.9,2.31 3.53,2.31 0.73,0 1.41,-0.59 2.05,-1.75 1.31,-1.37 2.51,-2.82 3.58,-4.38 2.58,-3.75 4.26,-7.64 5.04,-11.69 0.48,-2.48 0.73,-4.67 0.73,-6.57 0,-3.7 -1.12,-7.79 -3.36,-12.26zm81.23 9.49c3.31,0.83 6.33,1.24 9.06,1.24 2.53,0 4.77,-0.36 6.72,-1.09 3.99,-1.51 5.99,-3.77 5.99,-6.79 0,-3.84 -2.68,-5.67 -8.04,-5.48 -5.35,0.2 -9.06,1.65 -11.1,4.38 -1.41,1.94 -2.29,4.53 -2.63,7.74zm0.3 4.53c1.31,6.23 5.31,9.3 11.98,9.2l9.06 0 8.33 11.09c-3.07,-0.19 -8.13,-0.15 -15.19,0.15 -9.16,1.07 -13.73,3.94 -13.73,8.61 0,6.43 1.36,10.17 4.09,11.24 2.48,0.97 4.94,1.46 7.33,1.46 3.41,0 8.18,-1.46 14.34,-4.38 3.41,-1.61 7.26,-4.31 11.57,-8.1 2.48,-2.33 4.96,-4.65 7.45,-6.93l0 -36.35 -6.92 0 -5.87 -11.68 41.93 0 5.84 11.68 -22.43 0 0 75.77 -12.56 -5.84 0 -18.83c-3.12,2 -6.23,3.99 -9.37,5.99 -5.07,2.87 -10.37,4.77 -15.92,5.69 -1.32,0.25 -2.7,0.37 -4.12,0.37 -6.28,0 -11.74,-1.82 -16.39,-5.47 -5.21,-4.14 -7.84,-9.64 -7.89,-16.5 0,-3.5 2.73,-8.47 8.18,-14.89 -6.18,-3.89 -9.28,-9.78 -9.28,-17.67 0,-1.51 0.12,-3.07 0.36,-4.67 1.76,-10.66 8.38,-15.87 19.87,-15.62 5.31,0.1 9.52,1.75 12.64,4.96 2.73,2.82 4.09,6.23 4.09,10.22 0,6.37 -2.85,10.56 -8.55,12.56 -2.09,0.73 -4.41,1.09 -6.94,1.09 -4.82,0 -8.79,-1.05 -11.91,-3.14zm46.16 -25.7c-4.72,-8.86 -9.59,-14.45 -14.61,-16.79 -2.19,-1.02 -4.63,-1.53 -7.3,-1.53 -2.92,0 -6.57,0.7 -10.96,2.11 -1.12,1.36 -2.61,2.04 -4.46,2.04 -0.48,0 -0.95,-0.05 -1.39,-0.15 -2.44,-0.44 -5.02,-3.36 -7.75,-8.76 7.35,-2.24 13.06,-3.36 17.1,-3.36 5.79,0 11.25,1.46 16.36,4.38 4.63,2.63 10.18,9.98 16.65,22.04 -0.48,-3.6 -1.12,-6.89 -1.89,-9.85 -1.81,-7.15 -4.09,-12.19 -6.87,-15.11 -3.17,-3.31 -7.16,-5.91 -11.98,-7.81 -4.09,-1.61 -7.69,-2.36 -10.81,-2.26 -1.6,0.69 -3.24,1.02 -4.89,1.02 -1.37,0 -2.61,-0.24 -3.73,-0.73 -2.43,-1.12 -3.99,-4.72 -4.67,-10.8 10.22,0 16.61,0.34 19.14,1.02 5.89,1.56 12.42,6.23 19.57,14.02 4.19,4.52 7.16,14.7 8.91,30.51l-6.43 0zm81.81 11.68l-11.08 0 -5.87 -11.68 18.63 0c0.29,-10.05 1.26,-17.2 2.92,-21.44 2.92,-7.52 8.52,-11.26 16.8,-11.26 6.33,0 12.78,2.07 19.36,6.23 7.94,5.01 13.22,11.75 15.85,20.2l-1.02 0c-2.24,-4.04 -6.16,-7.64 -11.76,-10.8 -5.6,-3.17 -10.83,-4.74 -15.7,-4.74 -1.26,0 -2.43,0.12 -3.5,0.36 -6.33,1.51 -10.62,4.55 -12.86,9.13 -0.93,1.94 -1.8,6.06 -2.63,12.33l20.09 0 5.84 11.68 -23.37 0 0 75.77 -11.69 -5.84 0 -69.93zm75.96 0l-52.15 0 -5.84 -11.68 86.05 0 5.84 11.68 -22.35 0 0 75.77 -11.54 -5.84 0 -36.5 -28.19 0c-2.24,0 -3.58,1.68 -4.02,5.04 -0.48,3.8 -1.53,6.06 -3.14,6.79 -0.87,0.39 -1.8,0.58 -2.78,0.58 -4.92,0 -8.47,-3.99 -10.66,-11.97 -0.58,-2.09 -0.88,-3.85 -0.88,-5.26 0,-3.06 1.39,-5.01 4.17,-5.84 1.56,-0.49 4.99,-0.73 10.3,-0.73l35.21 0 0 -22.05zm39.3 12.41l0 26.09c2.92,10.05 7.59,14.89 14.02,14.5 4.87,-0.29 10.23,-3.8 16.07,-10.51l-30.09 -30.07zm-12.28 -12.41l-3.65 0 -5.84 -11.68 61.07 0 5.84 11.68 -45.14 0 0 3.94 34.18 34.17 0 11.24c-0.24,0.98 -0.46,1.92 -0.66,2.85 -0.39,1.17 -1.19,2.22 -2.41,3.14 -3.7,2.82 -7.57,4.23 -11.61,4.23 -2.29,0 -5.33,-0.54 -9.13,-1.61 -5.65,-1.56 -10.69,-4.21 -15.12,-7.96 -5.02,-4.23 -7.52,-8.64 -7.52,-13.21l0 -36.79zm88.97 43.94c3.99,-2.78 8.03,-7.69 12.12,-14.75l0 -29.2 -37.54 0 0 34.02c0,6.61 2.05,11.04 6.14,13.28 2.04,1.12 4.16,1.68 6.35,1.68 3.85,0 8.15,-1.68 12.93,-5.04zm-37.69 -43.94l-4.92 0 -5.89 -11.68 89.99 0 5.85 11.68 -22.94 0 0 75.77 -12.28 -5.84 0 -24.53c-3.74,5.4 -9.2,8.91 -16.36,10.51 -2.09,0.49 -4.04,0.73 -5.84,0.73 -3.46,0 -6.96,-1.02 -10.52,-3.06 -5.07,-2.92 -8.69,-5.45 -10.89,-7.59 -4.14,-4.04 -6.21,-8.56 -6.21,-13.57l0 -32.41zm127.39 38.11c-5.41,0.24 -12.18,-0.83 -20.31,-3.21 -3.36,5.16 -7.5,10.32 -12.42,15.48 -2.73,2.92 -4.09,5.59 -4.09,8.03 0,2.63 1.46,4.72 4.38,6.28 2.53,1.36 5.02,1.9 7.45,1.61 5.3,-0.68 8.67,-2.43 10.08,-5.26 -1.37,-1.21 -2.05,-2.7 -2.05,-4.45 0,-3.6 2.54,-6.01 7.6,-7.23 0.68,-0.15 1.39,-0.22 2.12,-0.22 2.73,0 5.11,0.87 7.16,2.63 2.24,1.94 3.24,4.41 2.99,7.37 -0.24,2.87 -2.19,5.59 -5.84,8.17l8.18 14.6c-0.05,0.39 -0.58,0.97 -1.63,1.78 -1.05,0.8 -1.58,1.43 -1.58,1.87l-9.2 -15.19c-5.11,3.8 -10.04,5.7 -14.76,5.7 -0.68,0 -1.36,-0.03 -2.05,-0.07 -7.25,-0.54 -12.27,-3.02 -15.05,-7.45 -2.33,-3.7 -3.5,-8.37 -3.5,-13.96 0,-1.8 0.2,-3.28 0.58,-4.45 2.33,-7.01 5.31,-13.33 8.91,-19 -2.09,-0.68 -4.29,-2 -6.58,-3.94 -2.28,-1.94 -4.53,-3.89 -6.72,-5.84 -3.02,-2.43 -4.53,-6.91 -4.53,-13.43 0,-4.6 0.98,-8.25 2.93,-10.98 3.65,-5.06 8.96,-7.59 15.92,-7.59 3.07,0 5.89,0.63 8.47,1.9 8.48,4.09 12.71,10.49 12.71,19.2 0,5.16 -1.27,10.14 -3.8,14.96 2.78,1.21 6.28,1.82 10.52,1.82 1.27,0 2.58,-0.07 3.94,-0.22 6.38,-0.58 12.81,-2.87 19.28,-6.86l0 -20.15 -17.68 0 -5.85 -11.68 51.14 0 5.84 11.68 -21.77 0 0 75.77 -11.69 -5.84 0 -37.52c0,0 -2.07,0.83 -6.21,2.48 -4.82,1.94 -9.13,3.02 -12.93,3.21zm-25.13 -15.48c3.07,-5.06 4.6,-10.71 4.6,-16.94 0,-3.21 -0.7,-5.55 -2.11,-7.01 -1.81,-1.8 -4.07,-2.7 -6.8,-2.7 -4.29,0 -7.77,1.58 -10.44,4.74 -1.56,1.85 -2.34,4.04 -2.34,6.57 0,3.31 1.07,6.04 3.21,8.18 4.82,4.82 9.08,7.22 12.78,7.22 0.39,0 0.76,-0.02 1.09,-0.07z"/>
   <path class="fil0" d="M331.24 817.74c-10.62,-36.19 -28.2,-72.03 -37.59,-112.32 -48.95,-209.97 7.92,-421.17 147.17,-575.88 42.21,-46.89 109.41,-100.82 164.81,-129.54 -34.34,3.78 -130.2,63.29 -160.93,87.35 -350.98,274.83 -322.02,791.03 31.49,1029.67 5.2,3.51 10.45,6.94 15.75,10.3 -2.95,-14.01 -4.51,-28.52 -4.51,-43.4 0,-115.85 93.92,-209.77 209.77,-209.77 5.86,0 11.65,0.25 17.39,0.72 3.93,0.22 7.91,0.5 11.95,0.93 110.61,11.44 174.94,98.84 183.78,204.96 19.24,-3 178.45,-179.38 211.35,-204.83 -0.72,-0.91 -1.6,-2.08 -2.14,-2.73l-18.74 -18.24c-113.74,-97.59 -234.13,-252.43 -294.09,-388.52 -19.19,-43.56 -80.25,-247.06 -77.55,-282.48 1.33,-17.45 8.09,-45.52 -16.49,-48.24l-0.11 530.34c0,6.82 0.25,12.24 0.67,16.6 11.48,4.48 19.6,15.64 19.6,28.7 0,17.01 -13.79,30.8 -30.8,30.8 -17.01,0 -30.8,-13.79 -30.8,-30.8 0,-11.51 6.32,-21.55 15.69,-26.83 0.52,-3.75 0.84,-8.5 0.84,-14.61 0,-38.74 5.53,-517.54 -3.72,-532.73 -23.55,13.01 -9.48,33.04 -10.38,54.59 -0.51,12.11 -9.61,40.52 -12.76,54.22 -40.56,177.04 -98.82,300.34 -204.55,439.29 -14.58,19.17 -99.11,126.75 -125.13,132.48zm523.85 404.28c92.45,-5.01 199.67,-27.98 245.61,-61.9 -50.34,2.55 -104.97,34.61 -221.28,27.78 -6.97,12.19 -15.14,23.61 -24.34,34.12z"/>
   <path class="fil2" d="M105.59 585.03c0,-119.67 33.54,-240.56 79.24,-325.91 24.26,-45.3 46.34,-80.65 77.89,-122.32 36.96,-48.81 79.88,-81.2 97.61,-103.79 -42.49,12.16 -135.38,89.82 -167.1,122.91 -52.59,54.85 -85.67,100.57 -120.76,168.55 -81.62,158.15 -88.85,313.89 -48.71,484.26 32.35,137.3 126.65,270.41 229.19,350.15 109.11,84.84 272.77,156.51 421.42,149.44 -7.24,-8.34 -42.97,-12.48 -59.12,-18.15 -305.77,-107.34 -509.67,-367.06 -509.67,-705.13z"/>
   <path class="fil0" d="M749.23 999.82c14.98,7.02 37.34,15.78 53.98,20.56 3.25,0.93 6.59,2.01 9.69,2.78 3.5,0.87 6.7,0.95 9.93,1.88 -8.28,4.77 -48.24,-6.46 -59.59,-10.07 -3.51,-1.12 -15.5,-5.54 -18.09,-5.46 -1.97,3.56 -4.41,11.64 -6.15,16.26 -2.98,7.88 -18.06,46.28 -18.18,48.55 2.43,1.42 9.74,4.07 13.18,5.37l40.53 14.57c9.01,2.96 18.27,5.93 28.29,8.39l29.67 7.4c-9.27,0.42 -22.59,-2.81 -31.75,-4.16 -17.4,-2.57 -40.26,-8.89 -57.46,-13.64l-26.65 -8.04 -15.12 38.72c-2.6,7.75 -14.63,33.72 -15.26,37.92 4.15,2.67 22.31,9.26 28.01,11.39 22.36,8.32 37.55,12.25 59.76,18.83 5.4,1.6 29.21,6.26 31.39,7.56 -19.98,0.25 -74.4,-12.04 -95.13,-18.32l-28.91 -8.61 -11.37 26.59c0.29,-8.45 5.57,-20.23 5.92,-28.26 -3.57,-2.43 -8.63,-3.23 -12.94,-4.92 -4.06,-1.59 -8.55,-3.04 -12.54,-4.65 -8.34,-3.36 -16.75,-6.63 -24.95,-10.02 -8.69,-3.59 -16.17,-7.15 -24.02,-10.89 -3.79,-1.8 -21.8,-11.12 -23.64,-11.35 -3.52,7.78 -4.45,43.3 -4.38,55.01 0.04,6.31 1.08,13.26 0.83,18.93 -3.85,-4.93 -10.25,-29.77 -11.74,-38.57 -1.24,-7.37 -2.19,-14.87 -2.67,-22.54 -2.04,-31.88 5.13,-18.84 -13.89,-31.99 -10.45,-7.22 -21.18,-14.12 -30.71,-22.54 -1.57,-1.39 -3.56,-3.78 -5.55,-4.5 -2.15,37.5 12.7,78.07 28,102.92 57.35,93.09 179.99,117.88 269.24,56.65 28.25,-19.38 44.8,-40.56 61.41,-69.82 3.28,-5.78 6.94,-16.81 9.44,-23.23 10.34,-26.5 12.65,-56.38 9.64,-85.12 -1.97,-18.78 -7.22,-36.19 -13.7,-51.7 -3.31,-7.94 -7.34,-14.13 -11.2,-21.52 -10.02,-19.17 -28.5,-40.07 -45.08,-52.87 -7.67,-5.92 -33,-23.27 -40.78,-24.33 -0.92,2.2 -2.3,8.67 -2.92,11.23 -0.93,3.81 -2.26,7.4 -3.26,11 -3.26,11.65 -21.49,62.19 -21.25,64.62z"/>
   <path class="fil3" d="M678.67 1157.91c0.45,-0.74 21.2,-78.13 21.23,-79.58l-24.23 -9.63c-20.03,-8.17 -38.51,-16.93 -57.64,-27.17 -2.09,-1.12 -8.4,-5.15 -10.42,-5.87 -5.48,6.23 -23.06,57.39 -25.27,70.2 14.91,10.69 30.38,19.31 46.44,28.15 5.39,2.96 43.62,22.44 49.88,23.9z"/>
   <path class="fil4" d="M723.67 1000.19c-3.23,-0.8 -23.02,-10.57 -26.78,-12.81 -9.38,-5.57 -23.69,-13.7 -31.69,-19.95 -1.63,-1.27 -5.39,-4.55 -7.17,-5.39 -5.98,2.73 -39.64,48.58 -40.74,55.55 11.56,10.17 75.8,46.91 86.01,48.72l20.36 -66.13z"/>
   <path class="fil5" d="M562.38 1090.41c0.23,-9.5 5.58,-28.4 8.21,-37.07 3.52,-11.57 7.55,-21.23 12.26,-32.88 -1.32,-1.8 -8.91,-6.97 -11.52,-9 -4,-3.11 -7.31,-5.86 -10.86,-9.2 -3.26,-3.06 -7.3,-6.83 -10.3,-10.29 -3.67,-4.24 -7.1,-10.32 -9.29,-11.41 -1.13,3.14 -6.17,10.57 -7.98,13.93 -2.81,5.22 -4.95,9.7 -7.13,14.57 -5.1,11.39 -9.39,21.48 -4.08,34.82 4.05,10.18 11.2,18.81 17.65,25.95 3.63,4.01 19.65,19.72 23.04,20.58z"/>
   <path class="fil6" d="M594.03 998.26c7.05,-11.64 12.36,-19.97 20.2,-30.23 5.87,-7.68 11.24,-13.35 17.77,-20.04 2.39,-2.44 5.01,-4.15 6.55,-6.61 -2.43,-6.13 -7.84,-11.63 -6.04,-21.94 1.02,-5.88 4.58,-9.9 9.31,-12.61l4.55 -2.59c0.1,-0.07 0.28,-0.2 0.4,-0.31 -7.72,0.25 -28.43,10.22 -35.73,13.91 -9.29,4.69 -38.34,22.28 -42.01,32.57 -6.48,18.19 18.99,44.61 25,47.86z"/>
   <path class="fil7" d="M672.72 948.25c2.21,3.04 9.02,8.82 12.15,11.54 7.24,6.28 34.95,26.3 42.51,28.66 1.36,-1.54 14.65,-41.98 17.16,-48.8 0.46,-1.26 1.26,-3.09 1.76,-4.65 1.96,-6.15 8.2,-21.73 8.44,-24.49 -7.66,-0.29 -18.54,2.17 -25.35,4.16 -7.85,2.3 -14.12,5.18 -21.18,8.61 -6.94,3.37 -12.9,7.07 -18.78,11.08 -3.13,2.14 -5.65,4.27 -8.54,6.38 -2.1,1.54 -7.22,4.98 -8.17,7.52z"/>
   <path class="fil8" d="M657.46 926.31l17.21 -10.15c13.16,-7.01 26.91,-11.44 42.11,-13.85 9.93,-1.57 17.34,-0.41 27.14,-0.07 -7.07,-6.48 -74.36,-9.13 -84.02,-0.83 -7.22,6.21 -5.96,19.77 -2.44,24.9z"/>
  </g>
 </g>
</svg>
